G04 Layer_Color=128*
%FSLAX43Y43*%
%MOMM*%
G71*
G01*
G75*
%ADD13C,0.178*%
%ADD14C,0.150*%
%ADD15C,0.100*%
%ADD16C,0.254*%
%ADD17C,0.127*%
%ADD18C,0.381*%
%ADD19C,0.178*%
%ADD20C,0.200*%
%ADD34C,0.051*%
G36*
X264889Y-150000D02*
X264164Y-150000D01*
X264164Y-148694D01*
X262611Y-148694D01*
X262611Y-150000D01*
X261929Y-150000D01*
X261929Y-146546D01*
X262611Y-146546D01*
X262611Y-147765D01*
X264164Y-147765D01*
X264164Y-146546D01*
X264889Y-146546D01*
X264889Y-150000D01*
X264889Y-150000D02*
G37*
G36*
X260971Y-146517D02*
X261043Y-146531D01*
X261101Y-146546D01*
X261116Y-146546D01*
X261145Y-146560D01*
X261232Y-146604D01*
X261290Y-146647D01*
X261333Y-146705D01*
X261377Y-146792D01*
X261406Y-146880D01*
X261406Y-146894D01*
X261421Y-146909D01*
X261421Y-146952D01*
X261435Y-147025D01*
X261435Y-147097D01*
X261450Y-147184D01*
X261450Y-147300D01*
X261450Y-147431D01*
X259563Y-147388D01*
X259548Y-147388D01*
X259490Y-147402D01*
X259432Y-147417D01*
X259345Y-147475D01*
X259273Y-147547D01*
X259200Y-147678D01*
X259171Y-147750D01*
X259142Y-147852D01*
X259127Y-147954D01*
X259127Y-148084D01*
X259127Y-148462D01*
X259127Y-148476D01*
X259127Y-148491D01*
X259127Y-148563D01*
X259156Y-148679D01*
X259185Y-148810D01*
X259229Y-148941D01*
X259302Y-149042D01*
X259403Y-149129D01*
X259476Y-149144D01*
X259548Y-149158D01*
X261479Y-149158D01*
X261479Y-149187D01*
X261479Y-149245D01*
X261479Y-149332D01*
X261464Y-149448D01*
X261450Y-149565D01*
X261435Y-149681D01*
X261406Y-149768D01*
X261363Y-149840D01*
X261363Y-149855D01*
X261333Y-149869D01*
X261290Y-149898D01*
X261232Y-149927D01*
X261145Y-149971D01*
X261043Y-150000D01*
X260898Y-150014D01*
X260724Y-150029D01*
X259316Y-150029D01*
X259200Y-150014D01*
X259069Y-149985D01*
X258924Y-149942D01*
X258779Y-149869D01*
X258648Y-149782D01*
X258547Y-149666D01*
X258547Y-149652D01*
X258518Y-149608D01*
X258489Y-149550D01*
X258460Y-149448D01*
X258431Y-149332D01*
X258402Y-149173D01*
X258387Y-148999D01*
X258373Y-148795D01*
X258373Y-147765D01*
X258373Y-147750D01*
X258373Y-147721D01*
X258373Y-147678D01*
X258373Y-147620D01*
X258402Y-147475D01*
X258431Y-147300D01*
X258474Y-147112D01*
X258547Y-146923D01*
X258648Y-146763D01*
X258721Y-146705D01*
X258794Y-146647D01*
X258808Y-146647D01*
X258837Y-146618D01*
X258881Y-146604D01*
X258953Y-146575D01*
X259040Y-146546D01*
X259156Y-146531D01*
X259273Y-146502D01*
X260797Y-146502D01*
X260971Y-146517D01*
X260971Y-146517D02*
G37*
G36*
X266210Y-150000D02*
X265397Y-150000D01*
X265397Y-146546D01*
X266210Y-146546D01*
X266210Y-150000D01*
X266210Y-150000D02*
G37*
G36*
X245209Y-145414D02*
X245282Y-145428D01*
X245354Y-145472D01*
X245427Y-145530D01*
X245514Y-145631D01*
X245572Y-145762D01*
X245601Y-145936D01*
X246065Y-150000D01*
X245194Y-150000D01*
X244948Y-147083D01*
X244933Y-147083D01*
X244048Y-149419D01*
X244048Y-149434D01*
X244019Y-149477D01*
X243975Y-149550D01*
X243932Y-149608D01*
X243859Y-149681D01*
X243772Y-149753D01*
X243656Y-149797D01*
X243540Y-149811D01*
X243482Y-149811D01*
X243409Y-149797D01*
X243322Y-149768D01*
X243235Y-149710D01*
X243148Y-149652D01*
X243061Y-149550D01*
X243003Y-149419D01*
X242118Y-147126D01*
X242103Y-147126D01*
X241842Y-150000D01*
X241000Y-150000D01*
X241435Y-145893D01*
X241435Y-145878D01*
X241450Y-145820D01*
X241479Y-145733D01*
X241523Y-145646D01*
X241581Y-145559D01*
X241668Y-145472D01*
X241769Y-145414D01*
X241900Y-145399D01*
X241972Y-145399D01*
X242059Y-145428D01*
X242147Y-145457D01*
X242248Y-145515D01*
X242364Y-145588D01*
X242451Y-145704D01*
X242538Y-145864D01*
X243525Y-148374D01*
X243540Y-148374D01*
X244527Y-145864D01*
X244541Y-145849D01*
X244556Y-145791D01*
X244599Y-145718D01*
X244672Y-145631D01*
X244759Y-145544D01*
X244861Y-145472D01*
X244991Y-145414D01*
X245151Y-145399D01*
X245165Y-145399D01*
X245209Y-145414D01*
X245209Y-145414D02*
G37*
G36*
X269026Y-146560D02*
X269142Y-146575D01*
X269272Y-146618D01*
X269403Y-146691D01*
X269534Y-146792D01*
X269650Y-146938D01*
X269722Y-147126D01*
X269722Y-147141D01*
X269737Y-147170D01*
X269737Y-147213D01*
X269751Y-147286D01*
X269766Y-147373D01*
X269766Y-147475D01*
X269780Y-147605D01*
X269780Y-147736D01*
X269780Y-147997D01*
X269780Y-148026D01*
X269780Y-148099D01*
X269766Y-148215D01*
X269751Y-148345D01*
X269693Y-148636D01*
X269650Y-148781D01*
X269577Y-148897D01*
X269577Y-148911D01*
X269548Y-148926D01*
X269505Y-148970D01*
X269461Y-149013D01*
X269316Y-149086D01*
X269214Y-149115D01*
X269113Y-149129D01*
X267386Y-149129D01*
X267386Y-150000D01*
X266674Y-150000D01*
X266674Y-146546D01*
X268953Y-146546D01*
X269026Y-146560D01*
X269026Y-146560D02*
G37*
G36*
X253714Y-146560D02*
X253830Y-146604D01*
X253961Y-146676D01*
X254019Y-146734D01*
X254077Y-146792D01*
X254135Y-146880D01*
X254193Y-146981D01*
X254236Y-147097D01*
X254265Y-147242D01*
X254294Y-147388D01*
X254294Y-147576D01*
X254294Y-147779D01*
X254294Y-147794D01*
X254294Y-147808D01*
X254294Y-147896D01*
X254280Y-148012D01*
X254251Y-148157D01*
X254193Y-148316D01*
X254135Y-148447D01*
X254033Y-148578D01*
X253903Y-148650D01*
X253903Y-148665D01*
X253917Y-148665D01*
X253961Y-148694D01*
X254033Y-148737D01*
X254106Y-148795D01*
X254164Y-148897D01*
X254236Y-149028D01*
X254280Y-149202D01*
X254294Y-149419D01*
X254294Y-150000D01*
X253569Y-150000D01*
X253569Y-149594D01*
X253569Y-149579D01*
X253569Y-149550D01*
X253569Y-149492D01*
X253569Y-149434D01*
X253554Y-149318D01*
X253554Y-149260D01*
X253540Y-149231D01*
X253525Y-149216D01*
X253482Y-149158D01*
X253409Y-149115D01*
X253278Y-149100D01*
X252001Y-149100D01*
X252001Y-150000D01*
X251261Y-150000D01*
X251261Y-146546D01*
X253641Y-146546D01*
X253714Y-146560D01*
X253714Y-146560D02*
G37*
G36*
X257154Y-146517D02*
X257270Y-146546D01*
X257415Y-146575D01*
X257545Y-146633D01*
X257662Y-146720D01*
X257763Y-146822D01*
X257778Y-146836D01*
X257792Y-146880D01*
X257836Y-146952D01*
X257879Y-147054D01*
X257908Y-147184D01*
X257952Y-147344D01*
X257966Y-147533D01*
X257981Y-147750D01*
X257981Y-148781D01*
X257981Y-148795D01*
X257981Y-148824D01*
X257981Y-148868D01*
X257966Y-148941D01*
X257952Y-149100D01*
X257923Y-149289D01*
X257850Y-149492D01*
X257763Y-149681D01*
X257647Y-149840D01*
X257560Y-149913D01*
X257473Y-149956D01*
X257458Y-149956D01*
X257444Y-149971D01*
X257386Y-149985D01*
X257328Y-149985D01*
X257255Y-150000D01*
X257168Y-150014D01*
X256950Y-150029D01*
X255673Y-150029D01*
X255572Y-150014D01*
X255441Y-149985D01*
X255296Y-149942D01*
X255151Y-149884D01*
X255020Y-149811D01*
X254919Y-149695D01*
X254904Y-149681D01*
X254889Y-149637D01*
X254860Y-149565D01*
X254831Y-149477D01*
X254788Y-149347D01*
X254759Y-149187D01*
X254744Y-148999D01*
X254730Y-148781D01*
X254730Y-147750D01*
X254730Y-147736D01*
X254730Y-147707D01*
X254730Y-147649D01*
X254744Y-147591D01*
X254759Y-147417D01*
X254802Y-147213D01*
X254875Y-147010D01*
X254977Y-146807D01*
X255049Y-146734D01*
X255122Y-146662D01*
X255223Y-146604D01*
X255325Y-146560D01*
X255339Y-146560D01*
X255354Y-146546D01*
X255397Y-146546D01*
X255456Y-146531D01*
X255601Y-146517D01*
X255775Y-146502D01*
X257052Y-146502D01*
X257154Y-146517D01*
X257154Y-146517D02*
G37*
G36*
X250085Y-146517D02*
X250245Y-146517D01*
X250405Y-146531D01*
X250535Y-146560D01*
X250579Y-146575D01*
X250608Y-146589D01*
X250622Y-146589D01*
X250637Y-146618D01*
X250666Y-146662D01*
X250710Y-146734D01*
X250739Y-146836D01*
X250768Y-146981D01*
X250782Y-147155D01*
X250797Y-147388D01*
X248895Y-147388D01*
X248823Y-147402D01*
X248721Y-147446D01*
X248620Y-147533D01*
X248605Y-147562D01*
X248591Y-147591D01*
X248562Y-147649D01*
X248547Y-147721D01*
X248518Y-147823D01*
X248504Y-147939D01*
X248504Y-148084D01*
X248504Y-148462D01*
X248504Y-148476D01*
X248504Y-148520D01*
X248504Y-148592D01*
X248518Y-148679D01*
X248533Y-148853D01*
X248547Y-148926D01*
X248562Y-148984D01*
X248576Y-149013D01*
X248634Y-149071D01*
X248750Y-149129D01*
X248823Y-149144D01*
X248910Y-149158D01*
X250840Y-149158D01*
X250840Y-149173D01*
X250840Y-149245D01*
X250840Y-149332D01*
X250826Y-149434D01*
X250797Y-149652D01*
X250768Y-149739D01*
X250739Y-149811D01*
X250739Y-149826D01*
X250710Y-149840D01*
X250666Y-149884D01*
X250608Y-149913D01*
X250521Y-149956D01*
X250419Y-150000D01*
X250274Y-150014D01*
X250100Y-150029D01*
X248707Y-150029D01*
X248591Y-150014D01*
X248475Y-150000D01*
X248344Y-149956D01*
X248199Y-149913D01*
X248068Y-149840D01*
X247967Y-149753D01*
X247952Y-149739D01*
X247937Y-149695D01*
X247894Y-149623D01*
X247850Y-149521D01*
X247807Y-149390D01*
X247778Y-149216D01*
X247749Y-149013D01*
X247734Y-148781D01*
X247734Y-147750D01*
X247734Y-147736D01*
X247734Y-147707D01*
X247734Y-147649D01*
X247749Y-147576D01*
X247778Y-147388D01*
X247821Y-147184D01*
X247908Y-146967D01*
X248039Y-146763D01*
X248112Y-146691D01*
X248213Y-146618D01*
X248315Y-146560D01*
X248445Y-146531D01*
X248475Y-146531D01*
X248547Y-146517D01*
X248649Y-146502D01*
X249911Y-146502D01*
X250085Y-146517D01*
X250085Y-146517D02*
G37*
G36*
X247299Y-150000D02*
X246501Y-150000D01*
X246501Y-146546D01*
X247299Y-146546D01*
X247299Y-150000D01*
X247299Y-150000D02*
G37*
G36*
X255731Y-135066D02*
X255847Y-135066D01*
X255978Y-135080D01*
X256123Y-135109D01*
X256442Y-135153D01*
X256791Y-135225D01*
X257154Y-135327D01*
X257502Y-135472D01*
X260666Y-140508D01*
X260666Y-140523D01*
X260666Y-140552D01*
X260651Y-140595D01*
X260651Y-140668D01*
X260622Y-140842D01*
X260579Y-141060D01*
X260579Y-141074D01*
X260564Y-141103D01*
X260550Y-141176D01*
X260535Y-141248D01*
X260506Y-141335D01*
X260477Y-141452D01*
X260405Y-141684D01*
X257662Y-137373D01*
X257647Y-137359D01*
X257633Y-137315D01*
X257589Y-137272D01*
X257531Y-137199D01*
X257458Y-137141D01*
X257371Y-137097D01*
X257270Y-137054D01*
X257168Y-137039D01*
X257125Y-137039D01*
X257081Y-137054D01*
X257023Y-137083D01*
X256950Y-137112D01*
X256863Y-137170D01*
X256791Y-137257D01*
X256704Y-137359D01*
X255789Y-138621D01*
X259026Y-143716D01*
X259011Y-143730D01*
X258953Y-143774D01*
X258866Y-143846D01*
X258750Y-143933D01*
X258605Y-144035D01*
X258416Y-144151D01*
X258213Y-144282D01*
X257981Y-144398D01*
X257720Y-144528D01*
X257429Y-144659D01*
X257125Y-144775D01*
X256791Y-144877D01*
X256442Y-144964D01*
X256080Y-145036D01*
X255688Y-145080D01*
X255281Y-145094D01*
X255180Y-145094D01*
X255064Y-145080D01*
X254919Y-145065D01*
X254715Y-145036D01*
X254498Y-145007D01*
X254251Y-144949D01*
X253975Y-144891D01*
X253685Y-144804D01*
X253380Y-144688D01*
X253061Y-144557D01*
X252741Y-144398D01*
X252422Y-144209D01*
X252088Y-143991D01*
X251769Y-143730D01*
X251464Y-143440D01*
X252829Y-141553D01*
X252843Y-141539D01*
X252858Y-141481D01*
X252887Y-141393D01*
X252901Y-141321D01*
X252916Y-141248D01*
X252916Y-141219D01*
X252901Y-141147D01*
X252858Y-141016D01*
X252771Y-140856D01*
X251755Y-139274D01*
X250245Y-141364D01*
X250245Y-141350D01*
X250245Y-141335D01*
X250216Y-141248D01*
X250187Y-141132D01*
X250158Y-140958D01*
X250129Y-140755D01*
X250100Y-140523D01*
X250085Y-140261D01*
X250071Y-139986D01*
X250071Y-139957D01*
X250071Y-139899D01*
X250085Y-139797D01*
X250100Y-139652D01*
X250115Y-139492D01*
X250144Y-139289D01*
X250187Y-139071D01*
X250260Y-138825D01*
X250332Y-138563D01*
X250419Y-138302D01*
X250550Y-138012D01*
X250681Y-137736D01*
X250855Y-137446D01*
X251043Y-137155D01*
X251261Y-136880D01*
X251522Y-136604D01*
X251537Y-136589D01*
X251595Y-136531D01*
X251682Y-136459D01*
X251798Y-136357D01*
X251958Y-136241D01*
X252132Y-136111D01*
X252350Y-135965D01*
X252596Y-135820D01*
X252858Y-135675D01*
X253162Y-135544D01*
X253482Y-135414D01*
X253830Y-135298D01*
X254193Y-135196D01*
X254585Y-135124D01*
X254991Y-135066D01*
X255426Y-135051D01*
X255630Y-135051D01*
X255731Y-135066D01*
X255731Y-135066D02*
G37*
G36*
X259331Y-135559D02*
X259418Y-135574D01*
X259519Y-135617D01*
X259621Y-135690D01*
X259708Y-135791D01*
X259766Y-135922D01*
X259795Y-136096D01*
X259795Y-136125D01*
X259781Y-136183D01*
X259766Y-136270D01*
X259723Y-136386D01*
X259664Y-136488D01*
X259563Y-136575D01*
X259432Y-136648D01*
X259244Y-136677D01*
X259200Y-136677D01*
X259156Y-136662D01*
X259113Y-136648D01*
X258968Y-136604D01*
X258910Y-136560D01*
X258837Y-136502D01*
X258837Y-136488D01*
X258808Y-136473D01*
X258750Y-136386D01*
X258692Y-136256D01*
X258678Y-136183D01*
X258663Y-136096D01*
X258663Y-136081D01*
X258663Y-136052D01*
X258678Y-136009D01*
X258692Y-135965D01*
X258750Y-135835D01*
X258837Y-135704D01*
X258852Y-135690D01*
X258866Y-135675D01*
X258953Y-135617D01*
X259084Y-135574D01*
X259156Y-135544D01*
X259273Y-135544D01*
X259331Y-135559D01*
X259331Y-135559D02*
G37*
%LPC*%
G36*
X268750Y-147373D02*
X267386Y-147373D01*
X267386Y-148258D01*
X268837Y-148258D01*
X268866Y-148244D01*
X268910Y-148215D01*
X268953Y-148171D01*
X268997Y-148099D01*
X269011Y-148012D01*
X269026Y-147896D01*
X269026Y-147765D01*
X269026Y-147750D01*
X269026Y-147707D01*
X269011Y-147634D01*
X268997Y-147562D01*
X268953Y-147504D01*
X268910Y-147431D01*
X268837Y-147388D01*
X268750Y-147373D01*
X268750Y-147373D02*
G37*
G36*
X253249Y-147373D02*
X252001Y-147373D01*
X252001Y-148244D01*
X253366Y-148244D01*
X253409Y-148229D01*
X253467Y-148200D01*
X253525Y-148157D01*
X253569Y-148084D01*
X253598Y-147997D01*
X253612Y-147866D01*
X253612Y-147765D01*
X253612Y-147750D01*
X253612Y-147707D01*
X253598Y-147634D01*
X253569Y-147562D01*
X253525Y-147504D01*
X253453Y-147431D01*
X253366Y-147388D01*
X253249Y-147373D01*
X253249Y-147373D02*
G37*
G36*
X256849Y-147373D02*
X255891Y-147373D01*
X255804Y-147388D01*
X255688Y-147446D01*
X255630Y-147475D01*
X255586Y-147533D01*
X255572Y-147562D01*
X255557Y-147605D01*
X255543Y-147663D01*
X255514Y-147736D01*
X255499Y-147837D01*
X255485Y-147954D01*
X255485Y-148084D01*
X255485Y-148462D01*
X255485Y-148476D01*
X255485Y-148520D01*
X255485Y-148592D01*
X255499Y-148679D01*
X255514Y-148853D01*
X255528Y-148941D01*
X255557Y-149013D01*
X255572Y-149042D01*
X255630Y-149086D01*
X255731Y-149129D01*
X255876Y-149158D01*
X256820Y-149158D01*
X256878Y-149144D01*
X256950Y-149115D01*
X257038Y-149071D01*
X257110Y-148984D01*
X257183Y-148868D01*
X257241Y-148694D01*
X257255Y-148578D01*
X257255Y-148462D01*
X257255Y-148084D01*
X257255Y-148070D01*
X257255Y-148026D01*
X257255Y-147954D01*
X257241Y-147866D01*
X257197Y-147692D01*
X257154Y-147605D01*
X257110Y-147533D01*
X257110Y-147518D01*
X257081Y-147504D01*
X257023Y-147446D01*
X256921Y-147402D01*
X256849Y-147373D01*
X256849Y-147373D02*
G37*
G36*
X253598Y-137025D02*
X253554Y-137025D01*
X253511Y-137039D01*
X253438Y-137068D01*
X253366Y-137097D01*
X253293Y-137155D01*
X253206Y-137243D01*
X253119Y-137344D01*
X252219Y-138607D01*
X254919Y-142874D01*
X254933Y-142888D01*
X254962Y-142932D01*
X255006Y-143004D01*
X255064Y-143063D01*
X255136Y-143135D01*
X255209Y-143208D01*
X255296Y-143251D01*
X255368Y-143266D01*
X255412Y-143266D01*
X255470Y-143251D01*
X255528Y-143222D01*
X255601Y-143193D01*
X255688Y-143150D01*
X255760Y-143077D01*
X255833Y-142975D01*
X256776Y-141626D01*
X254077Y-137359D01*
X254062Y-137344D01*
X254033Y-137301D01*
X253990Y-137257D01*
X253932Y-137185D01*
X253859Y-137126D01*
X253786Y-137083D01*
X253699Y-137039D01*
X253598Y-137025D01*
X253598Y-137025D02*
G37*
G36*
X259244Y-135646D02*
X259171Y-135646D01*
X259084Y-135675D01*
X258997Y-135704D01*
X258910Y-135762D01*
X258823Y-135835D01*
X258765Y-135951D01*
X258750Y-136096D01*
X258750Y-136111D01*
X258750Y-136125D01*
X258765Y-136212D01*
X258808Y-136328D01*
X258895Y-136444D01*
X258924Y-136473D01*
X258997Y-136517D01*
X259098Y-136560D01*
X259244Y-136589D01*
X259258Y-136589D01*
X259316Y-136575D01*
X259389Y-136560D01*
X259476Y-136531D01*
X259563Y-136473D01*
X259635Y-136386D01*
X259693Y-136256D01*
X259708Y-136096D01*
X259708Y-136081D01*
X259708Y-136023D01*
X259679Y-135951D01*
X259650Y-135864D01*
X259592Y-135791D01*
X259519Y-135719D01*
X259403Y-135661D01*
X259244Y-135646D01*
X259244Y-135646D02*
G37*
%LPD*%
G36*
X259374Y-135806D02*
X259447Y-135849D01*
X259476Y-135907D01*
X259490Y-135965D01*
X259490Y-135980D01*
X259490Y-135994D01*
X259476Y-136067D01*
X259418Y-136125D01*
X259374Y-136154D01*
X259316Y-136169D01*
X259505Y-136444D01*
X259389Y-136444D01*
X259215Y-136169D01*
X259113Y-136169D01*
X259113Y-136444D01*
X259011Y-136444D01*
X259011Y-135777D01*
X259287Y-135777D01*
X259374Y-135806D01*
X259374Y-135806D02*
G37*
%LPC*%
G36*
X259273Y-135864D02*
X259113Y-135864D01*
X259113Y-136081D01*
X259287Y-136081D01*
X259331Y-136067D01*
X259360Y-136038D01*
X259374Y-135965D01*
X259374Y-135951D01*
X259360Y-135907D01*
X259331Y-135878D01*
X259273Y-135864D01*
X259273Y-135864D02*
G37*
%LPD*%
D13*
X9176Y74937D02*
X9345Y75022D01*
X9599Y75276D01*
X9599Y73498D01*
X72650Y74852D02*
X72650Y74937D01*
X72735Y75106D01*
X72820Y75191D01*
X72989Y75276D01*
X73328Y75276D01*
X73497Y75191D01*
X73582Y75106D01*
X73666Y74937D01*
X73666Y74768D01*
X73582Y74598D01*
X73412Y74344D01*
X72566Y73498D01*
X73751Y73498D01*
X135964Y75276D02*
X136896Y75276D01*
X136388Y74598D01*
X136642Y74598D01*
X136811Y74514D01*
X136896Y74429D01*
X136980Y74175D01*
X136980Y74006D01*
X136896Y73752D01*
X136726Y73583D01*
X136472Y73498D01*
X136218Y73498D01*
X135964Y73583D01*
X135880Y73667D01*
X135795Y73837D01*
X200311Y75276D02*
X199464Y74091D01*
X200734Y74091D01*
X200311Y75276D02*
X200311Y73498D01*
X263955Y75276D02*
X263108Y75276D01*
X263023Y74514D01*
X263108Y74598D01*
X263362Y74683D01*
X263616Y74683D01*
X263870Y74598D01*
X264039Y74429D01*
X264124Y74175D01*
X264124Y74006D01*
X264039Y73752D01*
X263870Y73583D01*
X263616Y73498D01*
X263362Y73498D01*
X263108Y73583D01*
X263023Y73667D01*
X262939Y73837D01*
X327582Y75022D02*
X327497Y75191D01*
X327243Y75276D01*
X327074Y75276D01*
X326820Y75191D01*
X326650Y74937D01*
X326566Y74514D01*
X326566Y74091D01*
X326650Y73752D01*
X326820Y73583D01*
X327074Y73498D01*
X327158Y73498D01*
X327412Y73583D01*
X327582Y73752D01*
X327666Y74006D01*
X327666Y74091D01*
X327582Y74344D01*
X327412Y74514D01*
X327158Y74598D01*
X327074Y74598D01*
X326820Y74514D01*
X326650Y74344D01*
X326566Y74091D01*
X357079Y44466D02*
X356402Y46243D01*
X355725Y44466D01*
X355979Y45058D02*
X356825Y45058D01*
X355725Y-14209D02*
X355725Y-15986D01*
X355725Y-14209D02*
X356487Y-14209D01*
X356741Y-14293D01*
X356825Y-14378D01*
X356910Y-14547D01*
X356910Y-14716D01*
X356825Y-14886D01*
X356741Y-14970D01*
X356487Y-15055D01*
X355725Y-15055D02*
X356487Y-15055D01*
X356741Y-15140D01*
X356825Y-15224D01*
X356910Y-15394D01*
X356910Y-15648D01*
X356825Y-15817D01*
X356741Y-15902D01*
X356487Y-15986D01*
X355725Y-15986D01*
X356995Y-74957D02*
X356910Y-74788D01*
X356741Y-74618D01*
X356572Y-74534D01*
X356233Y-74534D01*
X356064Y-74618D01*
X355894Y-74788D01*
X355810Y-74957D01*
X355725Y-75211D01*
X355725Y-75634D01*
X355810Y-75888D01*
X355894Y-76057D01*
X356064Y-76227D01*
X356233Y-76311D01*
X356572Y-76311D01*
X356741Y-76227D01*
X356910Y-76057D01*
X356995Y-75888D01*
X355725Y-134732D02*
X355725Y-136509D01*
X355725Y-134732D02*
X356318Y-134732D01*
X356572Y-134816D01*
X356741Y-134986D01*
X356825Y-135155D01*
X356910Y-135409D01*
X356910Y-135832D01*
X356825Y-136086D01*
X356741Y-136255D01*
X356572Y-136425D01*
X356318Y-136509D01*
X355725Y-136509D01*
X-18841Y44466D02*
X-19518Y46243D01*
X-20195Y44466D01*
X-19941Y45058D02*
X-19095Y45058D01*
X-20195Y-14209D02*
X-20195Y-15986D01*
X-20195Y-14209D02*
X-19433Y-14209D01*
X-19179Y-14293D01*
X-19095Y-14378D01*
X-19010Y-14547D01*
X-19010Y-14716D01*
X-19095Y-14886D01*
X-19179Y-14970D01*
X-19433Y-15055D01*
X-20195Y-15055D02*
X-19433Y-15055D01*
X-19179Y-15140D01*
X-19095Y-15224D01*
X-19010Y-15394D01*
X-19010Y-15648D01*
X-19095Y-15817D01*
X-19179Y-15902D01*
X-19433Y-15986D01*
X-20195Y-15986D01*
X-18925Y-74957D02*
X-19010Y-74788D01*
X-19179Y-74618D01*
X-19348Y-74534D01*
X-19687Y-74534D01*
X-19856Y-74618D01*
X-20026Y-74788D01*
X-20110Y-74957D01*
X-20195Y-75211D01*
X-20195Y-75634D01*
X-20110Y-75888D01*
X-20026Y-76057D01*
X-19856Y-76227D01*
X-19687Y-76311D01*
X-19348Y-76311D01*
X-19179Y-76227D01*
X-19010Y-76057D01*
X-18925Y-75888D01*
X-20195Y-134732D02*
X-20195Y-136509D01*
X-20195Y-134732D02*
X-19602Y-134732D01*
X-19348Y-134816D01*
X-19179Y-134986D01*
X-19095Y-135155D01*
X-19010Y-135409D01*
X-19010Y-135832D01*
X-19095Y-136086D01*
X-19179Y-136255D01*
X-19348Y-136425D01*
X-19602Y-136509D01*
X-20195Y-136509D01*
X9176Y-161283D02*
X9345Y-161198D01*
X9599Y-160944D01*
X9599Y-162722D01*
X72650Y-161368D02*
X72650Y-161283D01*
X72735Y-161114D01*
X72820Y-161029D01*
X72989Y-160944D01*
X73328Y-160944D01*
X73497Y-161029D01*
X73582Y-161114D01*
X73666Y-161283D01*
X73666Y-161452D01*
X73582Y-161622D01*
X73412Y-161876D01*
X72566Y-162722D01*
X73751Y-162722D01*
X135964Y-160944D02*
X136896Y-160944D01*
X136388Y-161622D01*
X136642Y-161622D01*
X136811Y-161706D01*
X136896Y-161791D01*
X136980Y-162045D01*
X136980Y-162214D01*
X136896Y-162468D01*
X136726Y-162637D01*
X136472Y-162722D01*
X136218Y-162722D01*
X135964Y-162637D01*
X135880Y-162553D01*
X135795Y-162383D01*
X200311Y-160944D02*
X199464Y-162129D01*
X200734Y-162129D01*
X200311Y-160944D02*
X200311Y-162722D01*
X263955Y-160944D02*
X263108Y-160944D01*
X263023Y-161706D01*
X263108Y-161622D01*
X263362Y-161537D01*
X263616Y-161537D01*
X263870Y-161622D01*
X264039Y-161791D01*
X264124Y-162045D01*
X264124Y-162214D01*
X264039Y-162468D01*
X263870Y-162637D01*
X263616Y-162722D01*
X263362Y-162722D01*
X263108Y-162637D01*
X263023Y-162553D01*
X262939Y-162383D01*
X327582Y-161198D02*
X327497Y-161029D01*
X327243Y-160944D01*
X327074Y-160944D01*
X326820Y-161029D01*
X326650Y-161283D01*
X326566Y-161706D01*
X326566Y-162129D01*
X326650Y-162468D01*
X326820Y-162637D01*
X327074Y-162722D01*
X327158Y-162722D01*
X327412Y-162637D01*
X327582Y-162468D01*
X327666Y-162214D01*
X327666Y-162129D01*
X327582Y-161876D01*
X327412Y-161706D01*
X327158Y-161622D01*
X327074Y-161622D01*
X326820Y-161706D01*
X326650Y-161876D01*
X326566Y-162129D01*
X243270Y-157146D02*
X243185Y-156976D01*
X243016Y-156807D01*
X242846Y-156722D01*
X242508Y-156722D01*
X242339Y-156807D01*
X242169Y-156976D01*
X242085Y-157146D01*
X242000Y-157400D01*
X242000Y-157823D01*
X242085Y-158077D01*
X242169Y-158246D01*
X242339Y-158415D01*
X242508Y-158500D01*
X242846Y-158500D01*
X243016Y-158415D01*
X243185Y-158246D01*
X243270Y-158077D01*
X243769Y-156722D02*
X243769Y-158500D01*
X243769Y-157654D02*
X244023Y-157400D01*
X244192Y-157315D01*
X244446Y-157315D01*
X244616Y-157400D01*
X244700Y-157654D01*
X244700Y-158500D01*
X246182Y-157315D02*
X246182Y-158500D01*
X246182Y-157569D02*
X246012Y-157400D01*
X245843Y-157315D01*
X245589Y-157315D01*
X245420Y-157400D01*
X245251Y-157569D01*
X245166Y-157823D01*
X245166Y-157992D01*
X245251Y-158246D01*
X245420Y-158415D01*
X245589Y-158500D01*
X245843Y-158500D01*
X246012Y-158415D01*
X246182Y-158246D01*
X246656Y-157315D02*
X246656Y-158500D01*
X246656Y-157654D02*
X246910Y-157400D01*
X247079Y-157315D01*
X247333Y-157315D01*
X247502Y-157400D01*
X247587Y-157654D01*
X247587Y-158500D01*
X249068Y-156722D02*
X249068Y-158500D01*
X249068Y-157569D02*
X248899Y-157400D01*
X248730Y-157315D01*
X248476Y-157315D01*
X248306Y-157400D01*
X248137Y-157569D01*
X248052Y-157823D01*
X248052Y-157992D01*
X248137Y-158246D01*
X248306Y-158415D01*
X248476Y-158500D01*
X248730Y-158500D01*
X248899Y-158415D01*
X249068Y-158246D01*
X249542Y-156722D02*
X249542Y-158500D01*
X249915Y-157823D02*
X250930Y-157823D01*
X250930Y-157654D01*
X250846Y-157484D01*
X250761Y-157400D01*
X250592Y-157315D01*
X250338Y-157315D01*
X250169Y-157400D01*
X249999Y-157569D01*
X249915Y-157823D01*
X249915Y-157992D01*
X249999Y-158246D01*
X250169Y-158415D01*
X250338Y-158500D01*
X250592Y-158500D01*
X250761Y-158415D01*
X250930Y-158246D01*
X251311Y-157315D02*
X251311Y-158500D01*
X251311Y-157823D02*
X251396Y-157569D01*
X251565Y-157400D01*
X251735Y-157315D01*
X251989Y-157315D01*
X252319Y-158415D02*
X252234Y-158500D01*
X252149Y-158415D01*
X252234Y-158331D01*
X252319Y-158415D01*
X252319Y-158585D01*
X252234Y-158754D01*
X252149Y-158839D01*
X255459Y-158500D02*
X254782Y-156722D01*
X254105Y-158500D01*
X254359Y-157907D02*
X255205Y-157907D01*
X257059Y-156722D02*
X255874Y-158500D01*
X255874Y-156722D02*
X257059Y-156722D01*
X255874Y-158500D02*
X257059Y-158500D01*
X260673Y-156722D02*
X260420Y-156807D01*
X260335Y-156976D01*
X260335Y-157146D01*
X260420Y-157315D01*
X260589Y-157400D01*
X260927Y-157484D01*
X261181Y-157569D01*
X261351Y-157738D01*
X261435Y-157907D01*
X261435Y-158161D01*
X261351Y-158331D01*
X261266Y-158415D01*
X261012Y-158500D01*
X260673Y-158500D01*
X260420Y-158415D01*
X260335Y-158331D01*
X260250Y-158161D01*
X260250Y-157907D01*
X260335Y-157738D01*
X260504Y-157569D01*
X260758Y-157484D01*
X261097Y-157400D01*
X261266Y-157315D01*
X261351Y-157146D01*
X261351Y-156976D01*
X261266Y-156807D01*
X261012Y-156722D01*
X260673Y-156722D01*
X262849Y-156722D02*
X262002Y-156722D01*
X261918Y-157484D01*
X262002Y-157400D01*
X262256Y-157315D01*
X262510Y-157315D01*
X262764Y-157400D01*
X262934Y-157569D01*
X263018Y-157823D01*
X263018Y-157992D01*
X262934Y-158246D01*
X262764Y-158415D01*
X262510Y-158500D01*
X262256Y-158500D01*
X262002Y-158415D01*
X261918Y-158331D01*
X261833Y-158161D01*
X263501Y-157146D02*
X263501Y-157061D01*
X263585Y-156892D01*
X263670Y-156807D01*
X263839Y-156722D01*
X264178Y-156722D01*
X264347Y-156807D01*
X264432Y-156892D01*
X264517Y-157061D01*
X264517Y-157230D01*
X264432Y-157400D01*
X264263Y-157654D01*
X263416Y-158500D01*
X264601Y-158500D01*
X265084Y-157146D02*
X265084Y-157061D01*
X265168Y-156892D01*
X265253Y-156807D01*
X265422Y-156722D01*
X265761Y-156722D01*
X265930Y-156807D01*
X266015Y-156892D01*
X266099Y-157061D01*
X266099Y-157230D01*
X266015Y-157400D01*
X265845Y-157654D01*
X264999Y-158500D01*
X266184Y-158500D01*
X267428Y-156722D02*
X266582Y-157907D01*
X267852Y-157907D01*
X267428Y-156722D02*
X267428Y-158500D01*
X241085Y-154646D02*
X241085Y-154561D01*
X241169Y-154392D01*
X241254Y-154307D01*
X241423Y-154222D01*
X241762Y-154222D01*
X241931Y-154307D01*
X242016Y-154392D01*
X242100Y-154561D01*
X242100Y-154730D01*
X242016Y-154900D01*
X241846Y-155154D01*
X241000Y-156000D01*
X242185Y-156000D01*
X242752Y-154222D02*
X243683Y-154222D01*
X243175Y-154900D01*
X243429Y-154900D01*
X243599Y-154984D01*
X243683Y-155069D01*
X243768Y-155323D01*
X243768Y-155492D01*
X243683Y-155746D01*
X243514Y-155915D01*
X243260Y-156000D01*
X243006Y-156000D01*
X242752Y-155915D01*
X242668Y-155831D01*
X242583Y-155661D01*
X245182Y-154222D02*
X244335Y-154222D01*
X244251Y-154984D01*
X244335Y-154900D01*
X244589Y-154815D01*
X244843Y-154815D01*
X245097Y-154900D01*
X245266Y-155069D01*
X245351Y-155323D01*
X245351Y-155492D01*
X245266Y-155746D01*
X245097Y-155915D01*
X244843Y-156000D01*
X244589Y-156000D01*
X244335Y-155915D01*
X244251Y-155831D01*
X244166Y-155661D01*
X246765Y-154222D02*
X245918Y-154222D01*
X245833Y-154984D01*
X245918Y-154900D01*
X246172Y-154815D01*
X246426Y-154815D01*
X246680Y-154900D01*
X246849Y-155069D01*
X246934Y-155323D01*
X246934Y-155492D01*
X246849Y-155746D01*
X246680Y-155915D01*
X246426Y-156000D01*
X246172Y-156000D01*
X245918Y-155915D01*
X245833Y-155831D01*
X245749Y-155661D01*
X248728Y-154222D02*
X249152Y-156000D01*
X249575Y-154222D02*
X249152Y-156000D01*
X249575Y-154222D02*
X249998Y-156000D01*
X250421Y-154222D02*
X249998Y-156000D01*
X250862Y-155831D02*
X250777Y-155915D01*
X250862Y-156000D01*
X250946Y-155915D01*
X250862Y-155831D01*
X254002Y-154646D02*
X253917Y-154476D01*
X253748Y-154307D01*
X253579Y-154222D01*
X253240Y-154222D01*
X253071Y-154307D01*
X252902Y-154476D01*
X252817Y-154646D01*
X252732Y-154900D01*
X252732Y-155323D01*
X252817Y-155577D01*
X252902Y-155746D01*
X253071Y-155915D01*
X253240Y-156000D01*
X253579Y-156000D01*
X253748Y-155915D01*
X253917Y-155746D01*
X254002Y-155577D01*
X254501Y-154222D02*
X254501Y-156000D01*
X254501Y-155154D02*
X254755Y-154900D01*
X254925Y-154815D01*
X255179Y-154815D01*
X255348Y-154900D01*
X255433Y-155154D01*
X255433Y-156000D01*
X256914Y-154815D02*
X256914Y-156000D01*
X256914Y-155069D02*
X256745Y-154900D01*
X256575Y-154815D01*
X256321Y-154815D01*
X256152Y-154900D01*
X255983Y-155069D01*
X255898Y-155323D01*
X255898Y-155492D01*
X255983Y-155746D01*
X256152Y-155915D01*
X256321Y-156000D01*
X256575Y-156000D01*
X256745Y-155915D01*
X256914Y-155746D01*
X257388Y-154815D02*
X257388Y-156000D01*
X257388Y-155154D02*
X257642Y-154900D01*
X257811Y-154815D01*
X258065Y-154815D01*
X258234Y-154900D01*
X258319Y-155154D01*
X258319Y-156000D01*
X259800Y-154222D02*
X259800Y-156000D01*
X259800Y-155069D02*
X259631Y-154900D01*
X259462Y-154815D01*
X259208Y-154815D01*
X259039Y-154900D01*
X258869Y-155069D01*
X258785Y-155323D01*
X258785Y-155492D01*
X258869Y-155746D01*
X259039Y-155915D01*
X259208Y-156000D01*
X259462Y-156000D01*
X259631Y-155915D01*
X259800Y-155746D01*
X260274Y-154222D02*
X260274Y-156000D01*
X260647Y-155323D02*
X261663Y-155323D01*
X261663Y-155154D01*
X261578Y-154984D01*
X261493Y-154900D01*
X261324Y-154815D01*
X261070Y-154815D01*
X260901Y-154900D01*
X260732Y-155069D01*
X260647Y-155323D01*
X260647Y-155492D01*
X260732Y-155746D01*
X260901Y-155915D01*
X261070Y-156000D01*
X261324Y-156000D01*
X261493Y-155915D01*
X261663Y-155746D01*
X262044Y-154815D02*
X262044Y-156000D01*
X262044Y-155323D02*
X262128Y-155069D01*
X262298Y-154900D01*
X262467Y-154815D01*
X262721Y-154815D01*
X264278Y-154222D02*
X264278Y-156000D01*
X264278Y-154222D02*
X265040Y-154222D01*
X265294Y-154307D01*
X265379Y-154392D01*
X265463Y-154561D01*
X265463Y-154730D01*
X265379Y-154900D01*
X265294Y-154984D01*
X265040Y-155069D01*
X264278Y-155069D02*
X265040Y-155069D01*
X265294Y-155154D01*
X265379Y-155238D01*
X265463Y-155407D01*
X265463Y-155661D01*
X265379Y-155831D01*
X265294Y-155915D01*
X265040Y-156000D01*
X264278Y-156000D01*
X265861Y-154222D02*
X265861Y-156000D01*
X266234Y-154815D02*
X266742Y-156000D01*
X267250Y-154815D02*
X266742Y-156000D01*
X268553Y-154222D02*
X268553Y-156000D01*
X268553Y-155069D02*
X268384Y-154900D01*
X268215Y-154815D01*
X267961Y-154815D01*
X267791Y-154900D01*
X267622Y-155069D01*
X267537Y-155323D01*
X267537Y-155492D01*
X267622Y-155746D01*
X267791Y-155915D01*
X267961Y-156000D01*
X268215Y-156000D01*
X268384Y-155915D01*
X268553Y-155746D01*
X269112Y-155831D02*
X269027Y-155915D01*
X269112Y-156000D01*
X269196Y-155915D01*
X269112Y-155831D01*
X239770Y-151482D02*
X239770Y-153260D01*
X239770Y-151482D02*
X240447Y-153260D01*
X241124Y-151482D02*
X240447Y-153260D01*
X241124Y-151482D02*
X241124Y-153260D01*
X241802Y-151482D02*
X241886Y-151567D01*
X241971Y-151482D01*
X241886Y-151398D01*
X241802Y-151482D01*
X241886Y-152075D02*
X241886Y-153260D01*
X243300Y-152329D02*
X243131Y-152160D01*
X242961Y-152075D01*
X242707Y-152075D01*
X242538Y-152160D01*
X242369Y-152329D01*
X242284Y-152583D01*
X242284Y-152752D01*
X242369Y-153006D01*
X242538Y-153175D01*
X242707Y-153260D01*
X242961Y-153260D01*
X243131Y-153175D01*
X243300Y-153006D01*
X243681Y-152075D02*
X243681Y-153260D01*
X243681Y-152583D02*
X243765Y-152329D01*
X243935Y-152160D01*
X244104Y-152075D01*
X244358Y-152075D01*
X244942Y-152075D02*
X244773Y-152160D01*
X244603Y-152329D01*
X244519Y-152583D01*
X244519Y-152752D01*
X244603Y-153006D01*
X244773Y-153175D01*
X244942Y-153260D01*
X245196Y-153260D01*
X245365Y-153175D01*
X245535Y-153006D01*
X245619Y-152752D01*
X245619Y-152583D01*
X245535Y-152329D01*
X245365Y-152160D01*
X245196Y-152075D01*
X244942Y-152075D01*
X247024Y-152329D02*
X246855Y-152160D01*
X246686Y-152075D01*
X246432Y-152075D01*
X246263Y-152160D01*
X246093Y-152329D01*
X246009Y-152583D01*
X246009Y-152752D01*
X246093Y-153006D01*
X246263Y-153175D01*
X246432Y-153260D01*
X246686Y-153260D01*
X246855Y-153175D01*
X247024Y-153006D01*
X247405Y-151482D02*
X247405Y-153260D01*
X247405Y-152413D02*
X247659Y-152160D01*
X247829Y-152075D01*
X248083Y-152075D01*
X248252Y-152160D01*
X248336Y-152413D01*
X248336Y-153260D01*
X248971Y-151482D02*
X249056Y-151567D01*
X249141Y-151482D01*
X249056Y-151398D01*
X248971Y-151482D01*
X249056Y-152075D02*
X249056Y-153260D01*
X249454Y-152075D02*
X249454Y-153853D01*
X249454Y-152329D02*
X249623Y-152160D01*
X249792Y-152075D01*
X250046Y-152075D01*
X250216Y-152160D01*
X250385Y-152329D01*
X250470Y-152583D01*
X250470Y-152752D01*
X250385Y-153006D01*
X250216Y-153175D01*
X250046Y-153260D01*
X249792Y-153260D01*
X249623Y-153175D01*
X249454Y-153006D01*
X252840Y-151482D02*
X252840Y-153260D01*
X252247Y-151482D02*
X253432Y-151482D01*
X253644Y-152583D02*
X254660Y-152583D01*
X254660Y-152413D01*
X254575Y-152244D01*
X254490Y-152160D01*
X254321Y-152075D01*
X254067Y-152075D01*
X253898Y-152160D01*
X253729Y-152329D01*
X253644Y-152583D01*
X253644Y-152752D01*
X253729Y-153006D01*
X253898Y-153175D01*
X254067Y-153260D01*
X254321Y-153260D01*
X254490Y-153175D01*
X254660Y-153006D01*
X256056Y-152329D02*
X255887Y-152160D01*
X255718Y-152075D01*
X255464Y-152075D01*
X255295Y-152160D01*
X255125Y-152329D01*
X255041Y-152583D01*
X255041Y-152752D01*
X255125Y-153006D01*
X255295Y-153175D01*
X255464Y-153260D01*
X255718Y-153260D01*
X255887Y-153175D01*
X256056Y-153006D01*
X256437Y-151482D02*
X256437Y-153260D01*
X256437Y-152413D02*
X256691Y-152160D01*
X256861Y-152075D01*
X257115Y-152075D01*
X257284Y-152160D01*
X257368Y-152413D01*
X257368Y-153260D01*
X257834Y-152075D02*
X257834Y-153260D01*
X257834Y-152413D02*
X258088Y-152160D01*
X258257Y-152075D01*
X258511Y-152075D01*
X258680Y-152160D01*
X258765Y-152413D01*
X258765Y-153260D01*
X259654Y-152075D02*
X259485Y-152160D01*
X259315Y-152329D01*
X259231Y-152583D01*
X259231Y-152752D01*
X259315Y-153006D01*
X259485Y-153175D01*
X259654Y-153260D01*
X259908Y-153260D01*
X260077Y-153175D01*
X260246Y-153006D01*
X260331Y-152752D01*
X260331Y-152583D01*
X260246Y-152329D01*
X260077Y-152160D01*
X259908Y-152075D01*
X259654Y-152075D01*
X260721Y-151482D02*
X260721Y-153260D01*
X261516Y-152075D02*
X261347Y-152160D01*
X261178Y-152329D01*
X261093Y-152583D01*
X261093Y-152752D01*
X261178Y-153006D01*
X261347Y-153175D01*
X261516Y-153260D01*
X261770Y-153260D01*
X261939Y-153175D01*
X262109Y-153006D01*
X262193Y-152752D01*
X262193Y-152583D01*
X262109Y-152329D01*
X261939Y-152160D01*
X261770Y-152075D01*
X261516Y-152075D01*
X263599Y-152075D02*
X263599Y-153429D01*
X263514Y-153683D01*
X263429Y-153768D01*
X263260Y-153853D01*
X263006Y-153853D01*
X262837Y-153768D01*
X263599Y-152329D02*
X263429Y-152160D01*
X263260Y-152075D01*
X263006Y-152075D01*
X262837Y-152160D01*
X262667Y-152329D01*
X262583Y-152583D01*
X262583Y-152752D01*
X262667Y-153006D01*
X262837Y-153175D01*
X263006Y-153260D01*
X263260Y-153260D01*
X263429Y-153175D01*
X263599Y-153006D01*
X264157Y-152075D02*
X264665Y-153260D01*
X265173Y-152075D02*
X264665Y-153260D01*
X264496Y-153599D01*
X264327Y-153768D01*
X264157Y-153853D01*
X264073Y-153853D01*
X266866Y-151482D02*
X266866Y-153260D01*
X267238Y-152075D02*
X267238Y-153260D01*
X267238Y-152413D02*
X267492Y-152160D01*
X267662Y-152075D01*
X267916Y-152075D01*
X268085Y-152160D01*
X268170Y-152413D01*
X268170Y-153260D01*
X269651Y-152329D02*
X269482Y-152160D01*
X269312Y-152075D01*
X269058Y-152075D01*
X268889Y-152160D01*
X268720Y-152329D01*
X268635Y-152583D01*
X268635Y-152752D01*
X268720Y-153006D01*
X268889Y-153175D01*
X269058Y-153260D01*
X269312Y-153260D01*
X269482Y-153175D01*
X269651Y-153006D01*
X270117Y-153091D02*
X270032Y-153175D01*
X270117Y-153260D01*
X270201Y-153175D01*
X270117Y-153091D01*
X274100Y-146222D02*
X273000Y-146222D01*
X273000Y-148000D01*
X274100Y-148000D01*
X273000Y-147069D02*
X273677Y-147069D01*
X274397Y-146815D02*
X274397Y-148000D01*
X274397Y-147323D02*
X274481Y-147069D01*
X274651Y-146900D01*
X274820Y-146815D01*
X275074Y-146815D01*
X275404Y-146222D02*
X275489Y-146307D01*
X275573Y-146222D01*
X275489Y-146138D01*
X275404Y-146222D01*
X275489Y-146815D02*
X275489Y-148000D01*
X275887Y-146222D02*
X275887Y-148000D01*
X276733Y-146815D02*
X275887Y-147661D01*
X276225Y-147323D02*
X276818Y-148000D01*
X278494Y-146222D02*
X278494Y-148000D01*
X278494Y-146222D02*
X279594Y-146222D01*
X278494Y-147069D02*
X279171Y-147069D01*
X280813Y-146815D02*
X280813Y-148000D01*
X280813Y-147069D02*
X280644Y-146900D01*
X280474Y-146815D01*
X280221Y-146815D01*
X280051Y-146900D01*
X279882Y-147069D01*
X279797Y-147323D01*
X279797Y-147492D01*
X279882Y-147746D01*
X280051Y-147915D01*
X280221Y-148000D01*
X280474Y-148000D01*
X280644Y-147915D01*
X280813Y-147746D01*
X282218Y-147069D02*
X282134Y-146900D01*
X281880Y-146815D01*
X281626Y-146815D01*
X281372Y-146900D01*
X281287Y-147069D01*
X281372Y-147238D01*
X281541Y-147323D01*
X281964Y-147407D01*
X282134Y-147492D01*
X282218Y-147661D01*
X282218Y-147746D01*
X282134Y-147915D01*
X281880Y-148000D01*
X281626Y-148000D01*
X281372Y-147915D01*
X281287Y-147746D01*
X282591Y-146815D02*
X282591Y-148000D01*
X282591Y-147154D02*
X282845Y-146900D01*
X283014Y-146815D01*
X283268Y-146815D01*
X283437Y-146900D01*
X283522Y-147154D01*
X283522Y-148000D01*
X285003Y-146815D02*
X285003Y-148000D01*
X285003Y-147069D02*
X284834Y-146900D01*
X284665Y-146815D01*
X284411Y-146815D01*
X284241Y-146900D01*
X284072Y-147069D01*
X283987Y-147323D01*
X283987Y-147492D01*
X284072Y-147746D01*
X284241Y-147915D01*
X284411Y-148000D01*
X284665Y-148000D01*
X284834Y-147915D01*
X285003Y-147746D01*
X286493Y-147069D02*
X286324Y-146900D01*
X286154Y-146815D01*
X285900Y-146815D01*
X285731Y-146900D01*
X285562Y-147069D01*
X285477Y-147323D01*
X285477Y-147492D01*
X285562Y-147746D01*
X285731Y-147915D01*
X285900Y-148000D01*
X286154Y-148000D01*
X286324Y-147915D01*
X286493Y-147746D01*
X286874Y-146222D02*
X286874Y-148000D01*
X286874Y-147154D02*
X287128Y-146900D01*
X287297Y-146815D01*
X287551Y-146815D01*
X287720Y-146900D01*
X287805Y-147154D01*
X287805Y-148000D01*
X288525Y-146222D02*
X288525Y-147661D01*
X288609Y-147915D01*
X288779Y-148000D01*
X288948Y-148000D01*
X288271Y-146815D02*
X288863Y-146815D01*
X274100Y-152222D02*
X273000Y-152222D01*
X273000Y-154000D01*
X274100Y-154000D01*
X273000Y-153069D02*
X273677Y-153069D01*
X274397Y-152815D02*
X274397Y-154000D01*
X274397Y-153323D02*
X274481Y-153069D01*
X274651Y-152900D01*
X274820Y-152815D01*
X275074Y-152815D01*
X275404Y-152222D02*
X275489Y-152307D01*
X275573Y-152222D01*
X275489Y-152138D01*
X275404Y-152222D01*
X275489Y-152815D02*
X275489Y-154000D01*
X275887Y-152222D02*
X275887Y-154000D01*
X276733Y-152815D02*
X275887Y-153661D01*
X276225Y-153323D02*
X276818Y-154000D01*
X278494Y-152222D02*
X278494Y-154000D01*
X278494Y-152222D02*
X279594Y-152222D01*
X278494Y-153069D02*
X279171Y-153069D01*
X280813Y-152815D02*
X280813Y-154000D01*
X280813Y-153069D02*
X280644Y-152900D01*
X280474Y-152815D01*
X280221Y-152815D01*
X280051Y-152900D01*
X279882Y-153069D01*
X279797Y-153323D01*
X279797Y-153492D01*
X279882Y-153746D01*
X280051Y-153915D01*
X280221Y-154000D01*
X280474Y-154000D01*
X280644Y-153915D01*
X280813Y-153746D01*
X282218Y-153069D02*
X282134Y-152900D01*
X281880Y-152815D01*
X281626Y-152815D01*
X281372Y-152900D01*
X281287Y-153069D01*
X281372Y-153238D01*
X281541Y-153323D01*
X281964Y-153407D01*
X282134Y-153492D01*
X282218Y-153661D01*
X282218Y-153746D01*
X282134Y-153915D01*
X281880Y-154000D01*
X281626Y-154000D01*
X281372Y-153915D01*
X281287Y-153746D01*
X282591Y-152815D02*
X282591Y-154000D01*
X282591Y-153154D02*
X282845Y-152900D01*
X283014Y-152815D01*
X283268Y-152815D01*
X283437Y-152900D01*
X283522Y-153154D01*
X283522Y-154000D01*
X285003Y-152815D02*
X285003Y-154000D01*
X285003Y-153069D02*
X284834Y-152900D01*
X284665Y-152815D01*
X284411Y-152815D01*
X284241Y-152900D01*
X284072Y-153069D01*
X283987Y-153323D01*
X283987Y-153492D01*
X284072Y-153746D01*
X284241Y-153915D01*
X284411Y-154000D01*
X284665Y-154000D01*
X284834Y-153915D01*
X285003Y-153746D01*
X286493Y-153069D02*
X286324Y-152900D01*
X286154Y-152815D01*
X285900Y-152815D01*
X285731Y-152900D01*
X285562Y-153069D01*
X285477Y-153323D01*
X285477Y-153492D01*
X285562Y-153746D01*
X285731Y-153915D01*
X285900Y-154000D01*
X286154Y-154000D01*
X286324Y-153915D01*
X286493Y-153746D01*
X286874Y-152222D02*
X286874Y-154000D01*
X286874Y-153154D02*
X287128Y-152900D01*
X287297Y-152815D01*
X287551Y-152815D01*
X287720Y-152900D01*
X287805Y-153154D01*
X287805Y-154000D01*
X288525Y-152222D02*
X288525Y-153661D01*
X288609Y-153915D01*
X288779Y-154000D01*
X288948Y-154000D01*
X288271Y-152815D02*
X288863Y-152815D01*
X301428Y-146500D02*
X301214Y-146572D01*
X301071Y-146786D01*
X301000Y-147143D01*
X301000Y-147357D01*
X301071Y-147714D01*
X301214Y-147929D01*
X301428Y-148000D01*
X301571Y-148000D01*
X301786Y-147929D01*
X301928Y-147714D01*
X302000Y-147357D01*
X302000Y-147143D01*
X301928Y-146786D01*
X301786Y-146572D01*
X301571Y-146500D01*
X301428Y-146500D01*
X303192Y-146500D02*
X302478Y-146500D01*
X302407Y-147143D01*
X302478Y-147072D01*
X302693Y-147000D01*
X302907Y-147000D01*
X303121Y-147072D01*
X303264Y-147214D01*
X303335Y-147429D01*
X303335Y-147572D01*
X303264Y-147786D01*
X303121Y-147929D01*
X302907Y-148000D01*
X302693Y-148000D01*
X302478Y-147929D01*
X302407Y-147857D01*
X302335Y-147714D01*
X303671Y-147357D02*
X304956Y-147357D01*
X306399Y-146715D02*
X306256Y-146572D01*
X306042Y-146500D01*
X305756Y-146500D01*
X305542Y-146572D01*
X305399Y-146715D01*
X305399Y-146857D01*
X305470Y-147000D01*
X305542Y-147072D01*
X305685Y-147143D01*
X306113Y-147286D01*
X306256Y-147357D01*
X306327Y-147429D01*
X306399Y-147572D01*
X306399Y-147786D01*
X306256Y-147929D01*
X306042Y-148000D01*
X305756Y-148000D01*
X305542Y-147929D01*
X305399Y-147786D01*
X306734Y-146500D02*
X307092Y-148000D01*
X307449Y-146500D02*
X307092Y-148000D01*
X307449Y-146500D02*
X307806Y-148000D01*
X308163Y-146500D02*
X307806Y-148000D01*
X308463Y-146500D02*
X308463Y-148000D01*
X308777Y-148500D02*
X309920Y-148500D01*
X310112Y-146500D02*
X310112Y-148000D01*
X310112Y-146500D02*
X310612Y-146500D01*
X310826Y-146572D01*
X310969Y-146715D01*
X311041Y-146857D01*
X311112Y-147072D01*
X311112Y-147429D01*
X311041Y-147643D01*
X310969Y-147786D01*
X310826Y-147929D01*
X310612Y-148000D01*
X310112Y-148000D01*
X312376Y-146500D02*
X311448Y-146500D01*
X311448Y-148000D01*
X312376Y-148000D01*
X311448Y-147214D02*
X312019Y-147214D01*
X312626Y-146500D02*
X312626Y-148000D01*
X312626Y-146500D02*
X313197Y-148000D01*
X313769Y-146500D02*
X313197Y-148000D01*
X313769Y-146500D02*
X313769Y-148000D01*
X314626Y-146500D02*
X314483Y-146572D01*
X314340Y-146715D01*
X314269Y-146857D01*
X314197Y-147072D01*
X314197Y-147429D01*
X314269Y-147643D01*
X314340Y-147786D01*
X314483Y-147929D01*
X314626Y-148000D01*
X314911Y-148000D01*
X315054Y-147929D01*
X315197Y-147786D01*
X315268Y-147643D01*
X315340Y-147429D01*
X315340Y-147072D01*
X315268Y-146857D01*
X315197Y-146715D01*
X315054Y-146572D01*
X314911Y-146500D01*
X314626Y-146500D01*
X315690Y-147357D02*
X316975Y-147357D01*
X317418Y-146500D02*
X317418Y-148000D01*
X317418Y-146500D02*
X318061Y-146500D01*
X318275Y-146572D01*
X318346Y-146643D01*
X318418Y-146786D01*
X318418Y-146929D01*
X318346Y-147072D01*
X318275Y-147143D01*
X318061Y-147214D01*
X317418Y-147214D01*
X317918Y-147214D02*
X318418Y-148000D01*
X318753Y-146786D02*
X318896Y-146715D01*
X319110Y-146500D01*
X319110Y-148000D01*
X319925Y-147857D02*
X319853Y-147929D01*
X319925Y-148000D01*
X319996Y-147929D01*
X319925Y-147857D01*
X320753Y-146500D02*
X320539Y-146572D01*
X320396Y-146786D01*
X320324Y-147143D01*
X320324Y-147357D01*
X320396Y-147714D01*
X320539Y-147929D01*
X320753Y-148000D01*
X320896Y-148000D01*
X321110Y-147929D01*
X321253Y-147714D01*
X321324Y-147357D01*
X321324Y-147143D01*
X321253Y-146786D01*
X321110Y-146572D01*
X320896Y-146500D01*
X320753Y-146500D01*
X321731Y-147857D02*
X321660Y-147929D01*
X321731Y-148000D01*
X321803Y-147929D01*
X321731Y-147857D01*
X323202Y-146857D02*
X323131Y-146715D01*
X322988Y-146572D01*
X322845Y-146500D01*
X322560Y-146500D01*
X322417Y-146572D01*
X322274Y-146715D01*
X322203Y-146857D01*
X322131Y-147072D01*
X322131Y-147429D01*
X322203Y-147643D01*
X322274Y-147786D01*
X322417Y-147929D01*
X322560Y-148000D01*
X322845Y-148000D01*
X322988Y-147929D01*
X323131Y-147786D01*
X323202Y-147643D01*
X323202Y-147429D01*
X322845Y-147429D02*
X323202Y-147429D01*
X324616Y-146857D02*
X324545Y-146715D01*
X324402Y-146572D01*
X324259Y-146500D01*
X323974Y-146500D01*
X323831Y-146572D01*
X323688Y-146715D01*
X323617Y-146857D01*
X323545Y-147072D01*
X323545Y-147429D01*
X323617Y-147643D01*
X323688Y-147786D01*
X323831Y-147929D01*
X323974Y-148000D01*
X324259Y-148000D01*
X324402Y-147929D01*
X324545Y-147786D01*
X324616Y-147643D01*
X324616Y-147429D01*
X324259Y-147429D02*
X324616Y-147429D01*
X324959Y-146786D02*
X325102Y-146715D01*
X325316Y-146500D01*
X325316Y-148000D01*
X-23620Y-501932D02*
X-23620Y-503709D01*
X-23620Y-501932D02*
X-23027Y-501932D01*
X-22774Y-502016D01*
X-22604Y-502186D01*
X-22520Y-502355D01*
X-22435Y-502609D01*
X-22435Y-503032D01*
X-22520Y-503286D01*
X-22604Y-503455D01*
X-22774Y-503625D01*
X-23027Y-503709D01*
X-23620Y-503709D01*
X5751Y-528483D02*
X5920Y-528398D01*
X6174Y-528144D01*
X6174Y-529922D01*
X69225Y-528568D02*
X69225Y-528483D01*
X69310Y-528314D01*
X69395Y-528229D01*
X69564Y-528144D01*
X69903Y-528144D01*
X70072Y-528229D01*
X70157Y-528314D01*
X70241Y-528483D01*
X70241Y-528652D01*
X70157Y-528822D01*
X69987Y-529076D01*
X69141Y-529922D01*
X70326Y-529922D01*
X234250Y65439D02*
X234419Y65524D01*
X234673Y65778D01*
X234673Y64000D01*
X235638Y64169D02*
X235554Y64085D01*
X235638Y64000D01*
X235723Y64085D01*
X235638Y64169D01*
X236620Y65778D02*
X236366Y65693D01*
X236197Y65439D01*
X236112Y65016D01*
X236112Y64762D01*
X236197Y64339D01*
X236366Y64085D01*
X236620Y64000D01*
X236789Y64000D01*
X237043Y64085D01*
X237213Y64339D01*
X237297Y64762D01*
X237297Y65016D01*
X237213Y65439D01*
X237043Y65693D01*
X236789Y65778D01*
X236620Y65778D01*
X257250Y65778D02*
X257250Y64000D01*
X257622Y65185D02*
X257622Y64000D01*
X257622Y64846D02*
X257876Y65100D01*
X258046Y65185D01*
X258300Y65185D01*
X258469Y65100D01*
X258554Y64846D01*
X258554Y64000D01*
X259188Y65778D02*
X259273Y65693D01*
X259358Y65778D01*
X259273Y65862D01*
X259188Y65778D01*
X259273Y65185D02*
X259273Y64000D01*
X259925Y65778D02*
X259925Y64339D01*
X260010Y64085D01*
X260179Y64000D01*
X260348Y64000D01*
X259671Y65185D02*
X260263Y65185D01*
X260771Y65778D02*
X260856Y65693D01*
X260941Y65778D01*
X260856Y65862D01*
X260771Y65778D01*
X260856Y65185D02*
X260856Y64000D01*
X262270Y65185D02*
X262270Y64000D01*
X262270Y64931D02*
X262100Y65100D01*
X261931Y65185D01*
X261677Y65185D01*
X261508Y65100D01*
X261339Y64931D01*
X261254Y64677D01*
X261254Y64508D01*
X261339Y64254D01*
X261508Y64085D01*
X261677Y64000D01*
X261931Y64000D01*
X262100Y64085D01*
X262270Y64254D01*
X262744Y65778D02*
X262744Y64000D01*
X264513Y65778D02*
X264513Y64000D01*
X264513Y65778D02*
X265275Y65778D01*
X265529Y65693D01*
X265613Y65608D01*
X265698Y65439D01*
X265698Y65270D01*
X265613Y65100D01*
X265529Y65016D01*
X265275Y64931D01*
X264513Y64931D02*
X265275Y64931D01*
X265529Y64846D01*
X265613Y64762D01*
X265698Y64593D01*
X265698Y64339D01*
X265613Y64169D01*
X265529Y64085D01*
X265275Y64000D01*
X264513Y64000D01*
X266519Y65185D02*
X266350Y65100D01*
X266180Y64931D01*
X266096Y64677D01*
X266096Y64508D01*
X266180Y64254D01*
X266350Y64085D01*
X266519Y64000D01*
X266773Y64000D01*
X266942Y64085D01*
X267112Y64254D01*
X267196Y64508D01*
X267196Y64677D01*
X267112Y64931D01*
X266942Y65100D01*
X266773Y65185D01*
X266519Y65185D01*
X268601Y65185D02*
X268601Y64000D01*
X268601Y64931D02*
X268432Y65100D01*
X268263Y65185D01*
X268009Y65185D01*
X267840Y65100D01*
X267670Y64931D01*
X267586Y64677D01*
X267586Y64508D01*
X267670Y64254D01*
X267840Y64085D01*
X268009Y64000D01*
X268263Y64000D01*
X268432Y64085D01*
X268601Y64254D01*
X269075Y65185D02*
X269075Y64000D01*
X269075Y64677D02*
X269160Y64931D01*
X269329Y65100D01*
X269499Y65185D01*
X269753Y65185D01*
X270929Y65778D02*
X270929Y64000D01*
X270929Y64931D02*
X270760Y65100D01*
X270591Y65185D01*
X270337Y65185D01*
X270167Y65100D01*
X269998Y64931D01*
X269913Y64677D01*
X269913Y64508D01*
X269998Y64254D01*
X270167Y64085D01*
X270337Y64000D01*
X270591Y64000D01*
X270760Y64085D01*
X270929Y64254D01*
X272800Y65778D02*
X272800Y64000D01*
X272800Y65778D02*
X273392Y65778D01*
X273646Y65693D01*
X273816Y65524D01*
X273900Y65354D01*
X273985Y65100D01*
X273985Y64677D01*
X273900Y64423D01*
X273816Y64254D01*
X273646Y64085D01*
X273392Y64000D01*
X272800Y64000D01*
X274383Y64677D02*
X275399Y64677D01*
X275399Y64846D01*
X275314Y65016D01*
X275229Y65100D01*
X275060Y65185D01*
X274806Y65185D01*
X274637Y65100D01*
X274468Y64931D01*
X274383Y64677D01*
X274383Y64508D01*
X274468Y64254D01*
X274637Y64085D01*
X274806Y64000D01*
X275060Y64000D01*
X275229Y64085D01*
X275399Y64254D01*
X276711Y64931D02*
X276626Y65100D01*
X276372Y65185D01*
X276118Y65185D01*
X275864Y65100D01*
X275780Y64931D01*
X275864Y64762D01*
X276034Y64677D01*
X276457Y64593D01*
X276626Y64508D01*
X276711Y64339D01*
X276711Y64254D01*
X276626Y64085D01*
X276372Y64000D01*
X276118Y64000D01*
X275864Y64085D01*
X275780Y64254D01*
X277252Y65778D02*
X277337Y65693D01*
X277422Y65778D01*
X277337Y65862D01*
X277252Y65778D01*
X277337Y65185D02*
X277337Y64000D01*
X278751Y65185D02*
X278751Y63831D01*
X278666Y63577D01*
X278581Y63492D01*
X278412Y63407D01*
X278158Y63407D01*
X277989Y63492D01*
X278751Y64931D02*
X278581Y65100D01*
X278412Y65185D01*
X278158Y65185D01*
X277989Y65100D01*
X277820Y64931D01*
X277735Y64677D01*
X277735Y64508D01*
X277820Y64254D01*
X277989Y64085D01*
X278158Y64000D01*
X278412Y64000D01*
X278581Y64085D01*
X278751Y64254D01*
X279225Y65185D02*
X279225Y64000D01*
X279225Y64846D02*
X279479Y65100D01*
X279648Y65185D01*
X279902Y65185D01*
X280071Y65100D01*
X280156Y64846D01*
X280156Y64000D01*
X335500Y65189D02*
X335669Y65274D01*
X335923Y65528D01*
X335923Y63750D01*
X336888Y65104D02*
X336888Y65189D01*
X336973Y65358D01*
X337058Y65443D01*
X337227Y65528D01*
X337565Y65528D01*
X337735Y65443D01*
X337819Y65358D01*
X337904Y65189D01*
X337904Y65020D01*
X337819Y64850D01*
X337650Y64596D01*
X336804Y63750D01*
X337989Y63750D01*
X338387Y64512D02*
X339910Y64512D01*
X340943Y65528D02*
X340689Y65443D01*
X340520Y65189D01*
X340435Y64766D01*
X340435Y64512D01*
X340520Y64089D01*
X340689Y63835D01*
X340943Y63750D01*
X341112Y63750D01*
X341366Y63835D01*
X341535Y64089D01*
X341620Y64512D01*
X341620Y64766D01*
X341535Y65189D01*
X341366Y65443D01*
X341112Y65528D01*
X340943Y65528D01*
X342187Y65528D02*
X343118Y65528D01*
X342611Y64850D01*
X342864Y64850D01*
X343034Y64766D01*
X343118Y64681D01*
X343203Y64427D01*
X343203Y64258D01*
X343118Y64004D01*
X342949Y63835D01*
X342695Y63750D01*
X342441Y63750D01*
X342187Y63835D01*
X342103Y63919D01*
X342018Y64089D01*
X343601Y64512D02*
X345125Y64512D01*
X345734Y65104D02*
X345734Y65189D01*
X345819Y65358D01*
X345903Y65443D01*
X346073Y65528D01*
X346411Y65528D01*
X346581Y65443D01*
X346665Y65358D01*
X346750Y65189D01*
X346750Y65020D01*
X346665Y64850D01*
X346496Y64596D01*
X345649Y63750D01*
X346834Y63750D01*
X347740Y65528D02*
X347486Y65443D01*
X347317Y65189D01*
X347232Y64766D01*
X347232Y64512D01*
X347317Y64089D01*
X347486Y63835D01*
X347740Y63750D01*
X347909Y63750D01*
X348163Y63835D01*
X348333Y64089D01*
X348417Y64512D01*
X348417Y64766D01*
X348333Y65189D01*
X348163Y65443D01*
X347909Y65528D01*
X347740Y65528D01*
X348815Y65189D02*
X348985Y65274D01*
X349238Y65528D01*
X349238Y63750D01*
X351219Y64935D02*
X351135Y64681D01*
X350965Y64512D01*
X350711Y64427D01*
X350627Y64427D01*
X350373Y64512D01*
X350203Y64681D01*
X350119Y64935D01*
X350119Y65020D01*
X350203Y65274D01*
X350373Y65443D01*
X350627Y65528D01*
X350711Y65528D01*
X350965Y65443D01*
X351135Y65274D01*
X351219Y64935D01*
X351219Y64512D01*
X351135Y64089D01*
X350965Y63835D01*
X350711Y63750D01*
X350542Y63750D01*
X350288Y63835D01*
X350203Y64004D01*
D14*
X339700Y-152786D02*
X339843Y-152715D01*
X340057Y-152500D01*
X340057Y-154000D01*
X340800Y-154214D02*
X341800Y-152500D01*
X341971Y-152857D02*
X341971Y-152786D01*
X342042Y-152643D01*
X342114Y-152572D01*
X342257Y-152500D01*
X342542Y-152500D01*
X342685Y-152572D01*
X342757Y-152643D01*
X342828Y-152786D01*
X342828Y-152929D01*
X342757Y-153072D01*
X342614Y-153286D01*
X341900Y-154000D01*
X342899Y-154000D01*
X343949Y-152500D02*
X343235Y-153500D01*
X344306Y-153500D01*
X343949Y-152500D02*
X343949Y-154000D01*
X344570Y-154214D02*
X345570Y-152500D01*
X345742Y-152857D02*
X345742Y-152786D01*
X345813Y-152643D01*
X345884Y-152572D01*
X346027Y-152500D01*
X346313Y-152500D01*
X346456Y-152572D01*
X346527Y-152643D01*
X346599Y-152786D01*
X346599Y-152929D01*
X346527Y-153072D01*
X346384Y-153286D01*
X345670Y-154000D01*
X346670Y-154000D01*
X347434Y-152500D02*
X347220Y-152572D01*
X347077Y-152786D01*
X347006Y-153143D01*
X347006Y-153357D01*
X347077Y-153714D01*
X347220Y-153929D01*
X347434Y-154000D01*
X347577Y-154000D01*
X347791Y-153929D01*
X347934Y-153714D01*
X348005Y-153357D01*
X348005Y-153143D01*
X347934Y-152786D01*
X347791Y-152572D01*
X347577Y-152500D01*
X347434Y-152500D01*
X348412Y-152857D02*
X348412Y-152786D01*
X348484Y-152643D01*
X348555Y-152572D01*
X348698Y-152500D01*
X348984Y-152500D01*
X349127Y-152572D01*
X349198Y-152643D01*
X349269Y-152786D01*
X349269Y-152929D01*
X349198Y-153072D01*
X349055Y-153286D01*
X348341Y-154000D01*
X349341Y-154000D01*
X350105Y-152500D02*
X349891Y-152572D01*
X349748Y-152786D01*
X349676Y-153143D01*
X349676Y-153357D01*
X349748Y-153714D01*
X349891Y-153929D01*
X350105Y-154000D01*
X350248Y-154000D01*
X350462Y-153929D01*
X350605Y-153714D01*
X350676Y-153357D01*
X350676Y-153143D01*
X350605Y-152786D01*
X350462Y-152572D01*
X350248Y-152500D01*
X350105Y-152500D01*
X330000Y-135524D02*
X330428Y-135524D01*
X330571Y-135476D01*
X330619Y-135429D01*
X330667Y-135333D01*
X330667Y-135191D01*
X330619Y-135095D01*
X330571Y-135048D01*
X330428Y-135000D01*
X330000Y-135000D01*
X330000Y-136000D01*
X331652Y-136000D02*
X331271Y-135000D01*
X330890Y-136000D01*
X331033Y-135667D02*
X331509Y-135667D01*
X331885Y-135000D02*
X331885Y-136000D01*
X331885Y-135000D02*
X332314Y-135000D01*
X332457Y-135048D01*
X332504Y-135095D01*
X332552Y-135191D01*
X332552Y-135286D01*
X332504Y-135381D01*
X332457Y-135429D01*
X332314Y-135476D01*
X331885Y-135476D01*
X332219Y-135476D02*
X332552Y-136000D01*
X333109Y-135000D02*
X333109Y-136000D01*
X332776Y-135000D02*
X333442Y-135000D01*
X334347Y-135000D02*
X334347Y-136000D01*
X334347Y-135000D02*
X335013Y-136000D01*
X335013Y-135000D02*
X335013Y-136000D01*
X335289Y-135000D02*
X335289Y-135714D01*
X335337Y-135857D01*
X335432Y-135952D01*
X335575Y-136000D01*
X335670Y-136000D01*
X335813Y-135952D01*
X335908Y-135857D01*
X335956Y-135714D01*
X335956Y-135000D01*
X336232Y-135000D02*
X336232Y-136000D01*
X336232Y-135000D02*
X336613Y-136000D01*
X336994Y-135000D02*
X336613Y-136000D01*
X336994Y-135000D02*
X336994Y-136000D01*
X337279Y-135000D02*
X337279Y-136000D01*
X337279Y-135000D02*
X337708Y-135000D01*
X337851Y-135048D01*
X337898Y-135095D01*
X337946Y-135191D01*
X337946Y-135286D01*
X337898Y-135381D01*
X337851Y-135429D01*
X337708Y-135476D01*
X337279Y-135476D02*
X337708Y-135476D01*
X337851Y-135524D01*
X337898Y-135571D01*
X337946Y-135667D01*
X337946Y-135810D01*
X337898Y-135905D01*
X337851Y-135952D01*
X337708Y-136000D01*
X337279Y-136000D01*
X338789Y-135000D02*
X338170Y-135000D01*
X338170Y-136000D01*
X338789Y-136000D01*
X338170Y-135476D02*
X338551Y-135476D01*
X338955Y-135000D02*
X338955Y-136000D01*
X338955Y-135000D02*
X339384Y-135000D01*
X339527Y-135048D01*
X339574Y-135095D01*
X339622Y-135191D01*
X339622Y-135286D01*
X339574Y-135381D01*
X339527Y-135429D01*
X339384Y-135476D01*
X338955Y-135476D01*
X339289Y-135476D02*
X339622Y-136000D01*
X339893Y-135333D02*
X339846Y-135381D01*
X339893Y-135429D01*
X339941Y-135381D01*
X339893Y-135333D01*
X339893Y-135905D02*
X339846Y-135952D01*
X339893Y-136000D01*
X339941Y-135952D01*
X339893Y-135905D01*
D15*
X272000Y-141500D02*
X353820Y-141500D01*
X329000Y-137000D02*
X329000Y-134000D01*
X353820Y-137000D02*
X353820Y-137000D01*
X329000Y-137000D02*
X353820Y-137000D01*
X347700Y-156600D02*
X347700Y-156000D01*
X350160Y-158635D02*
X350160Y-157365D01*
X347620Y-158635D02*
X347620Y-157365D01*
X345080Y-158635D02*
X345080Y-157365D01*
X352700Y-158635D02*
X352700Y-157365D01*
X342540Y-158635D02*
X342540Y-157365D01*
X342540Y-158000D02*
X352700Y-158000D01*
X352700Y-156800D02*
X352700Y-155800D01*
X342700Y-156800D02*
X342700Y-155800D01*
X342700Y-156300D02*
X352700Y-156300D01*
X339233Y-157600D02*
X338900Y-158067D01*
X339400Y-158067D01*
X339233Y-157600D02*
X339233Y-158300D01*
X339723Y-157600D02*
X339623Y-157633D01*
X339557Y-157733D01*
X339523Y-157900D01*
X339523Y-158000D01*
X339557Y-158167D01*
X339623Y-158267D01*
X339723Y-158300D01*
X339790Y-158300D01*
X339890Y-158267D01*
X339956Y-158167D01*
X339990Y-158000D01*
X339990Y-157900D01*
X339956Y-157733D01*
X339890Y-157633D01*
X339790Y-157600D01*
X339723Y-157600D01*
X340346Y-157600D02*
X340246Y-157633D01*
X340180Y-157733D01*
X340146Y-157900D01*
X340146Y-158000D01*
X340180Y-158167D01*
X340246Y-158267D01*
X340346Y-158300D01*
X340413Y-158300D01*
X340513Y-158267D01*
X340580Y-158167D01*
X340613Y-158000D01*
X340613Y-157900D01*
X340580Y-157733D01*
X340513Y-157633D01*
X340413Y-157600D01*
X340346Y-157600D01*
X340770Y-157833D02*
X340770Y-158300D01*
X340770Y-157967D02*
X340870Y-157867D01*
X340936Y-157833D01*
X341036Y-157833D01*
X341103Y-157867D01*
X341136Y-157967D01*
X341136Y-158300D01*
X341136Y-157967D02*
X341236Y-157867D01*
X341303Y-157833D01*
X341403Y-157833D01*
X341469Y-157867D01*
X341503Y-157967D01*
X341503Y-158300D01*
X341789Y-157600D02*
X341823Y-157633D01*
X341856Y-157600D01*
X341823Y-157567D01*
X341789Y-157600D01*
X341823Y-157833D02*
X341823Y-158300D01*
X341979Y-157600D02*
X341979Y-158300D01*
X339000Y-156033D02*
X339067Y-156000D01*
X339167Y-155900D01*
X339167Y-156600D01*
X339713Y-155900D02*
X339613Y-155933D01*
X339547Y-156033D01*
X339513Y-156200D01*
X339513Y-156300D01*
X339547Y-156467D01*
X339613Y-156567D01*
X339713Y-156600D01*
X339780Y-156600D01*
X339880Y-156567D01*
X339946Y-156467D01*
X339980Y-156300D01*
X339980Y-156200D01*
X339946Y-156033D01*
X339880Y-155933D01*
X339780Y-155900D01*
X339713Y-155900D01*
X340136Y-156133D02*
X340136Y-156600D01*
X340136Y-156267D02*
X340236Y-156167D01*
X340303Y-156133D01*
X340403Y-156133D01*
X340470Y-156167D01*
X340503Y-156267D01*
X340503Y-156600D01*
X340503Y-156267D02*
X340603Y-156167D01*
X340670Y-156133D01*
X340770Y-156133D01*
X340836Y-156167D01*
X340870Y-156267D01*
X340870Y-156600D01*
X341090Y-156133D02*
X341090Y-156600D01*
X341090Y-156267D02*
X341190Y-156167D01*
X341256Y-156133D01*
X341356Y-156133D01*
X341423Y-156167D01*
X341456Y-156267D01*
X341456Y-156600D01*
X341456Y-156267D02*
X341556Y-156167D01*
X341623Y-156133D01*
X341723Y-156133D01*
X341789Y-156167D01*
X341823Y-156267D01*
X341823Y-156600D01*
D16*
X243000Y62500D02*
X243000Y67000D01*
X334000Y62500D02*
X334000Y67000D01*
X232000Y62500D02*
X353500Y62500D01*
X232000Y62500D02*
X232000Y67000D01*
X334000Y67000D02*
X334000Y71500D01*
X255500Y67000D02*
X255500Y71500D01*
X243000Y67000D02*
X243000Y71500D01*
X232000Y67000D02*
X353500Y67000D01*
X232000Y67000D02*
X232000Y71500D01*
X255500Y62500D02*
X255500Y67000D01*
X339000Y69524D02*
X339000Y68000D01*
X339762Y68000D01*
X340016Y68254D01*
X340016Y69270D01*
X339762Y69524D01*
X339000Y69524D01*
X340777Y69016D02*
X341285Y69016D01*
X341539Y68762D01*
X341539Y68000D01*
X340777Y68000D01*
X340524Y68254D01*
X340777Y68508D01*
X341539Y68508D01*
X342301Y69270D02*
X342301Y69016D01*
X342047Y69016D01*
X342555Y69016D01*
X342301Y69016D01*
X342301Y68254D01*
X342555Y68000D01*
X344078Y68000D02*
X343571Y68000D01*
X343317Y68254D01*
X343317Y68762D01*
X343571Y69016D01*
X344078Y69016D01*
X344332Y68762D01*
X344332Y68508D01*
X343317Y68508D01*
X292016Y69270D02*
X291762Y69524D01*
X291254Y69524D01*
X291000Y69270D01*
X291000Y68254D01*
X291254Y68000D01*
X291762Y68000D01*
X292016Y68254D01*
X292777Y68000D02*
X293285Y68000D01*
X293539Y68254D01*
X293539Y68762D01*
X293285Y69016D01*
X292777Y69016D01*
X292524Y68762D01*
X292524Y68254D01*
X292777Y68000D01*
X294047Y68000D02*
X294047Y69016D01*
X294301Y69016D01*
X294555Y68762D01*
X294555Y68000D01*
X294555Y68762D01*
X294809Y69016D01*
X295063Y68762D01*
X295063Y68000D01*
X295571Y68000D02*
X295571Y69016D01*
X295824Y69016D01*
X296078Y68762D01*
X296078Y68000D01*
X296078Y68762D01*
X296332Y69016D01*
X296586Y68762D01*
X296586Y68000D01*
X297856Y68000D02*
X297348Y68000D01*
X297094Y68254D01*
X297094Y68762D01*
X297348Y69016D01*
X297856Y69016D01*
X298110Y68762D01*
X298110Y68508D01*
X297094Y68508D01*
X298618Y68000D02*
X298618Y69016D01*
X299379Y69016D01*
X299633Y68762D01*
X299633Y68000D01*
X300395Y69270D02*
X300395Y69016D01*
X300141Y69016D01*
X300649Y69016D01*
X300395Y69016D01*
X300395Y68254D01*
X300649Y68000D01*
X301411Y68000D02*
X302172Y68000D01*
X302426Y68254D01*
X302172Y68508D01*
X301665Y68508D01*
X301411Y68762D01*
X301665Y69016D01*
X302426Y69016D01*
X245516Y70024D02*
X244500Y70024D01*
X244500Y68500D01*
X245516Y68500D01*
X244500Y69262D02*
X245008Y69262D01*
X247039Y69770D02*
X246785Y70024D01*
X246277Y70024D01*
X246024Y69770D01*
X246024Y68754D01*
X246277Y68500D01*
X246785Y68500D01*
X247039Y68754D01*
X248309Y70024D02*
X247801Y70024D01*
X247547Y69770D01*
X247547Y68754D01*
X247801Y68500D01*
X248309Y68500D01*
X248563Y68754D01*
X248563Y69770D01*
X248309Y70024D01*
X234500Y68500D02*
X234500Y70024D01*
X235262Y70024D01*
X235516Y69770D01*
X235516Y69262D01*
X235262Y69008D01*
X234500Y69008D01*
X235008Y69008D02*
X235516Y68500D01*
X237039Y70024D02*
X236024Y70024D01*
X236024Y68500D01*
X237039Y68500D01*
X236024Y69262D02*
X236531Y69262D01*
X237547Y70024D02*
X237547Y69008D01*
X238055Y68500D01*
X238563Y69008D01*
X238563Y70024D01*
D17*
X272000Y-159420D02*
X272000Y-134000D01*
X238000Y-159420D02*
X238000Y-134000D01*
X353820Y-134000D01*
X295400Y71720D02*
X295400Y76800D01*
X231900Y71720D02*
X231900Y76800D01*
X168400Y71720D02*
X168400Y76800D01*
X104900Y71720D02*
X104900Y76800D01*
X-17020Y71720D02*
X353820Y71720D01*
X-22100Y76800D02*
X358900Y76800D01*
X41400Y71720D02*
X41400Y76800D01*
X353820Y-159420D02*
X353820Y71720D01*
X358900Y-164500D02*
X358900Y76800D01*
X353820Y16475D02*
X358900Y16475D01*
X353820Y-43850D02*
X358900Y-43850D01*
X353820Y-104175D02*
X358900Y-104175D01*
X295400Y-164500D02*
X295400Y-159420D01*
X231900Y-164500D02*
X231900Y-159420D01*
X168400Y-164500D02*
X168400Y-159420D01*
X104900Y-164500D02*
X104900Y-159420D01*
X353820Y-159420D02*
X353820Y-128940D01*
X-22100Y-164500D02*
X-22100Y76800D01*
X-22100Y-164500D02*
X358900Y-164500D01*
X-17020Y-159420D02*
X-17020Y71720D01*
X-17020Y-159420D02*
X353820Y-159420D01*
X-22100Y16475D02*
X-17020Y16475D01*
X-22100Y-43850D02*
X-17020Y-43850D01*
X-22100Y-104175D02*
X-17020Y-104175D01*
X41400Y-164500D02*
X41400Y-159420D01*
X203960Y-159420D02*
X239520Y-159420D01*
X272000Y-155000D02*
X353820Y-155000D01*
X272000Y-149000D02*
X353820Y-149000D01*
X338500Y-159420D02*
X338500Y-149000D01*
X300000Y-159420D02*
X300000Y-143000D01*
X272000Y-143000D02*
X353820Y-143000D01*
X318000Y-155000D02*
X318000Y-149000D01*
X331000Y-159420D02*
X331000Y-155000D01*
X101475Y-531700D02*
X101475Y-526620D01*
X37975Y-531700D02*
X37975Y-526620D01*
X301816Y-144129D02*
X301762Y-144020D01*
X301653Y-143912D01*
X301544Y-143857D01*
X301327Y-143857D01*
X301218Y-143912D01*
X301109Y-144020D01*
X301054Y-144129D01*
X301000Y-144293D01*
X301000Y-144565D01*
X301054Y-144728D01*
X301109Y-144837D01*
X301218Y-144946D01*
X301327Y-145000D01*
X301544Y-145000D01*
X301653Y-144946D01*
X301762Y-144837D01*
X301816Y-144728D01*
X301816Y-144565D01*
X301544Y-144565D02*
X301816Y-144565D01*
X302785Y-143857D02*
X302077Y-143857D01*
X302077Y-145000D01*
X302785Y-145000D01*
X302077Y-144401D02*
X302513Y-144401D01*
X302975Y-143857D02*
X302975Y-145000D01*
X302975Y-143857D02*
X303465Y-143857D01*
X303628Y-143912D01*
X303683Y-143966D01*
X303737Y-144075D01*
X303737Y-144184D01*
X303683Y-144293D01*
X303628Y-144347D01*
X303465Y-144401D01*
X302975Y-144401D01*
X303356Y-144401D02*
X303737Y-145000D01*
X303993Y-143857D02*
X303993Y-145000D01*
X303993Y-143857D02*
X304483Y-143857D01*
X304646Y-143912D01*
X304700Y-143966D01*
X304755Y-144075D01*
X304755Y-144184D01*
X304700Y-144293D01*
X304646Y-144347D01*
X304483Y-144401D01*
X303993Y-144401D02*
X304483Y-144401D01*
X304646Y-144456D01*
X304700Y-144510D01*
X304755Y-144619D01*
X304755Y-144782D01*
X304700Y-144891D01*
X304646Y-144946D01*
X304483Y-145000D01*
X303993Y-145000D01*
X305718Y-143857D02*
X305011Y-143857D01*
X305011Y-145000D01*
X305718Y-145000D01*
X305011Y-144401D02*
X305446Y-144401D01*
X305908Y-143857D02*
X305908Y-145000D01*
X305908Y-143857D02*
X306398Y-143857D01*
X306561Y-143912D01*
X306616Y-143966D01*
X306670Y-144075D01*
X306670Y-144184D01*
X306616Y-144293D01*
X306561Y-144347D01*
X306398Y-144401D01*
X305908Y-144401D01*
X306289Y-144401D02*
X306670Y-145000D01*
X307824Y-143857D02*
X307824Y-145000D01*
X307824Y-143857D02*
X308531Y-143857D01*
X307824Y-144401D02*
X308259Y-144401D01*
X308662Y-143857D02*
X308662Y-145000D01*
X308901Y-143857D02*
X308901Y-145000D01*
X309554Y-145000D01*
X310387Y-143857D02*
X309680Y-143857D01*
X309680Y-145000D01*
X310387Y-145000D01*
X309680Y-144401D02*
X310115Y-144401D01*
X310632Y-144238D02*
X310577Y-144293D01*
X310632Y-144347D01*
X310686Y-144293D01*
X310632Y-144238D01*
X310632Y-144891D02*
X310577Y-144946D01*
X310632Y-145000D01*
X310686Y-144946D01*
X310632Y-144891D01*
X273054Y-157879D02*
X273054Y-157825D01*
X273109Y-157716D01*
X273163Y-157662D01*
X273272Y-157607D01*
X273490Y-157607D01*
X273599Y-157662D01*
X273653Y-157716D01*
X273707Y-157825D01*
X273707Y-157934D01*
X273653Y-158043D01*
X273544Y-158206D01*
X273000Y-158750D01*
X273762Y-158750D01*
X274915Y-157607D02*
X274915Y-158750D01*
X275568Y-158750D01*
X276347Y-157988D02*
X276347Y-158750D01*
X276347Y-158151D02*
X276238Y-158043D01*
X276129Y-157988D01*
X275966Y-157988D01*
X275857Y-158043D01*
X275748Y-158151D01*
X275694Y-158315D01*
X275694Y-158423D01*
X275748Y-158587D01*
X275857Y-158696D01*
X275966Y-158750D01*
X276129Y-158750D01*
X276238Y-158696D01*
X276347Y-158587D01*
X276706Y-157988D02*
X277032Y-158750D01*
X277359Y-157988D02*
X277032Y-158750D01*
X276923Y-158968D01*
X276815Y-159076D01*
X276706Y-159131D01*
X276651Y-159131D01*
X277549Y-158315D02*
X278202Y-158315D01*
X278202Y-158206D01*
X278148Y-158097D01*
X278093Y-158043D01*
X277985Y-157988D01*
X277821Y-157988D01*
X277713Y-158043D01*
X277604Y-158151D01*
X277549Y-158315D01*
X277549Y-158423D01*
X277604Y-158587D01*
X277713Y-158696D01*
X277821Y-158750D01*
X277985Y-158750D01*
X278093Y-158696D01*
X278202Y-158587D01*
X278447Y-157988D02*
X278447Y-158750D01*
X278447Y-158315D02*
X278502Y-158151D01*
X278610Y-158043D01*
X278719Y-157988D01*
X278882Y-157988D01*
X279584Y-158151D02*
X279530Y-158043D01*
X279367Y-157988D01*
X279204Y-157988D01*
X279040Y-158043D01*
X278986Y-158151D01*
X279040Y-158260D01*
X279149Y-158315D01*
X279421Y-158369D01*
X279530Y-158423D01*
X279584Y-158532D01*
X279584Y-158587D01*
X279530Y-158696D01*
X279367Y-158750D01*
X279204Y-158750D01*
X279040Y-158696D01*
X278986Y-158587D01*
X279878Y-158641D02*
X279824Y-158696D01*
X279878Y-158750D01*
X279933Y-158696D01*
X279878Y-158641D01*
X280183Y-158206D02*
X280673Y-158206D01*
X280836Y-158151D01*
X280890Y-158097D01*
X280945Y-157988D01*
X280945Y-157825D01*
X280890Y-157716D01*
X280836Y-157662D01*
X280673Y-157607D01*
X280183Y-157607D01*
X280183Y-158750D01*
X281854Y-158151D02*
X281745Y-158043D01*
X281636Y-157988D01*
X281473Y-157988D01*
X281364Y-158043D01*
X281255Y-158151D01*
X281201Y-158315D01*
X281201Y-158423D01*
X281255Y-158587D01*
X281364Y-158696D01*
X281473Y-158750D01*
X281636Y-158750D01*
X281745Y-158696D01*
X281854Y-158587D01*
X282099Y-157607D02*
X282099Y-158750D01*
X282099Y-158151D02*
X282207Y-158043D01*
X282316Y-157988D01*
X282479Y-157988D01*
X282588Y-158043D01*
X282697Y-158151D01*
X282752Y-158315D01*
X282752Y-158423D01*
X282697Y-158587D01*
X282588Y-158696D01*
X282479Y-158750D01*
X282316Y-158750D01*
X282207Y-158696D01*
X282099Y-158587D01*
X282996Y-157607D02*
X282996Y-158750D01*
X282996Y-157607D02*
X283377Y-157607D01*
X283541Y-157662D01*
X283649Y-157770D01*
X283704Y-157879D01*
X283758Y-158043D01*
X283758Y-158315D01*
X283704Y-158478D01*
X283649Y-158587D01*
X283541Y-158696D01*
X283377Y-158750D01*
X282996Y-158750D01*
X284286Y-157988D02*
X284177Y-158043D01*
X284068Y-158151D01*
X284014Y-158315D01*
X284014Y-158423D01*
X284068Y-158587D01*
X284177Y-158696D01*
X284286Y-158750D01*
X284449Y-158750D01*
X284558Y-158696D01*
X284667Y-158587D01*
X284721Y-158423D01*
X284721Y-158315D01*
X284667Y-158151D01*
X284558Y-158043D01*
X284449Y-157988D01*
X284286Y-157988D01*
X285625Y-158151D02*
X285516Y-158043D01*
X285407Y-157988D01*
X285244Y-157988D01*
X285135Y-158043D01*
X285026Y-158151D01*
X284972Y-158315D01*
X284972Y-158423D01*
X285026Y-158587D01*
X285135Y-158696D01*
X285244Y-158750D01*
X285407Y-158750D01*
X285516Y-158696D01*
X285625Y-158587D01*
X273707Y-149857D02*
X273000Y-149857D01*
X273000Y-151000D01*
X273707Y-151000D01*
X273000Y-150401D02*
X273435Y-150401D01*
X273898Y-149857D02*
X273898Y-151000D01*
X273898Y-149857D02*
X274660Y-151000D01*
X274660Y-149857D02*
X274660Y-151000D01*
X275792Y-150129D02*
X275737Y-150020D01*
X275628Y-149912D01*
X275520Y-149857D01*
X275302Y-149857D01*
X275193Y-149912D01*
X275084Y-150020D01*
X275030Y-150129D01*
X274975Y-150293D01*
X274975Y-150565D01*
X275030Y-150728D01*
X275084Y-150837D01*
X275193Y-150946D01*
X275302Y-151000D01*
X275520Y-151000D01*
X275628Y-150946D01*
X275737Y-150837D01*
X275792Y-150728D01*
X275792Y-150565D01*
X275520Y-150565D02*
X275792Y-150565D01*
X276053Y-149857D02*
X276053Y-151000D01*
X276292Y-149857D02*
X276292Y-151000D01*
X276292Y-149857D02*
X277054Y-151000D01*
X277054Y-149857D02*
X277054Y-151000D01*
X278077Y-149857D02*
X277370Y-149857D01*
X277370Y-151000D01*
X278077Y-151000D01*
X277370Y-150401D02*
X277805Y-150401D01*
X278975Y-149857D02*
X278268Y-149857D01*
X278268Y-151000D01*
X278975Y-151000D01*
X278268Y-150401D02*
X278703Y-150401D01*
X279165Y-149857D02*
X279165Y-151000D01*
X279165Y-149857D02*
X279655Y-149857D01*
X279818Y-149912D01*
X279873Y-149966D01*
X279927Y-150075D01*
X279927Y-150184D01*
X279873Y-150293D01*
X279818Y-150347D01*
X279655Y-150401D01*
X279165Y-150401D01*
X279546Y-150401D02*
X279927Y-151000D01*
X280237Y-150238D02*
X280183Y-150293D01*
X280237Y-150347D01*
X280292Y-150293D01*
X280237Y-150238D01*
X280237Y-150891D02*
X280183Y-150946D01*
X280237Y-151000D01*
X280292Y-150946D01*
X280237Y-150891D01*
X273381Y-135357D02*
X273381Y-136500D01*
X273000Y-135357D02*
X273762Y-135357D01*
X273898Y-135357D02*
X273898Y-136500D01*
X274518Y-135357D02*
X274518Y-136500D01*
X274137Y-135357D02*
X274899Y-135357D01*
X275035Y-135357D02*
X275035Y-136500D01*
X275688Y-136500D01*
X276521Y-135357D02*
X275813Y-135357D01*
X275813Y-136500D01*
X276521Y-136500D01*
X275813Y-135901D02*
X276249Y-135901D01*
X276766Y-135738D02*
X276711Y-135793D01*
X276766Y-135847D01*
X276820Y-135793D01*
X276766Y-135738D01*
X276766Y-136391D02*
X276711Y-136446D01*
X276766Y-136500D01*
X276820Y-136446D01*
X276766Y-136391D01*
X273000Y-144456D02*
X273490Y-144456D01*
X273653Y-144401D01*
X273707Y-144347D01*
X273762Y-144238D01*
X273762Y-144075D01*
X273707Y-143966D01*
X273653Y-143912D01*
X273490Y-143857D01*
X273000Y-143857D01*
X273000Y-145000D01*
X274834Y-144129D02*
X274779Y-144020D01*
X274671Y-143912D01*
X274562Y-143857D01*
X274344Y-143857D01*
X274235Y-143912D01*
X274126Y-144020D01*
X274072Y-144129D01*
X274018Y-144293D01*
X274018Y-144565D01*
X274072Y-144728D01*
X274126Y-144837D01*
X274235Y-144946D01*
X274344Y-145000D01*
X274562Y-145000D01*
X274671Y-144946D01*
X274779Y-144837D01*
X274834Y-144728D01*
X275155Y-143857D02*
X275155Y-145000D01*
X275155Y-143857D02*
X275645Y-143857D01*
X275808Y-143912D01*
X275862Y-143966D01*
X275917Y-144075D01*
X275917Y-144184D01*
X275862Y-144293D01*
X275808Y-144347D01*
X275645Y-144401D01*
X275155Y-144401D02*
X275645Y-144401D01*
X275808Y-144456D01*
X275862Y-144510D01*
X275917Y-144619D01*
X275917Y-144782D01*
X275862Y-144891D01*
X275808Y-144946D01*
X275645Y-145000D01*
X275155Y-145000D01*
X277070Y-143857D02*
X277070Y-145000D01*
X277070Y-143857D02*
X277451Y-143857D01*
X277615Y-143912D01*
X277723Y-144020D01*
X277778Y-144129D01*
X277832Y-144293D01*
X277832Y-144565D01*
X277778Y-144728D01*
X277723Y-144837D01*
X277615Y-144946D01*
X277451Y-145000D01*
X277070Y-145000D01*
X278795Y-143857D02*
X278088Y-143857D01*
X278088Y-145000D01*
X278795Y-145000D01*
X278088Y-144401D02*
X278523Y-144401D01*
X279748Y-144020D02*
X279639Y-143912D01*
X279476Y-143857D01*
X279258Y-143857D01*
X279095Y-143912D01*
X278986Y-144020D01*
X278986Y-144129D01*
X279040Y-144238D01*
X279095Y-144293D01*
X279204Y-144347D01*
X279530Y-144456D01*
X279639Y-144510D01*
X279693Y-144565D01*
X279748Y-144673D01*
X279748Y-144837D01*
X279639Y-144946D01*
X279476Y-145000D01*
X279258Y-145000D01*
X279095Y-144946D01*
X278986Y-144837D01*
X280003Y-143857D02*
X280003Y-145000D01*
X281059Y-144129D02*
X281005Y-144020D01*
X280896Y-143912D01*
X280787Y-143857D01*
X280569Y-143857D01*
X280461Y-143912D01*
X280352Y-144020D01*
X280297Y-144129D01*
X280243Y-144293D01*
X280243Y-144565D01*
X280297Y-144728D01*
X280352Y-144837D01*
X280461Y-144946D01*
X280569Y-145000D01*
X280787Y-145000D01*
X280896Y-144946D01*
X281005Y-144837D01*
X281059Y-144728D01*
X281059Y-144565D01*
X280787Y-144565D02*
X281059Y-144565D01*
X281320Y-143857D02*
X281320Y-145000D01*
X281320Y-143857D02*
X282082Y-145000D01*
X282082Y-143857D02*
X282082Y-145000D01*
X283105Y-143857D02*
X282398Y-143857D01*
X282398Y-145000D01*
X283105Y-145000D01*
X282398Y-144401D02*
X282833Y-144401D01*
X283296Y-143857D02*
X283296Y-145000D01*
X283296Y-143857D02*
X283785Y-143857D01*
X283949Y-143912D01*
X284003Y-143966D01*
X284058Y-144075D01*
X284058Y-144184D01*
X284003Y-144293D01*
X283949Y-144347D01*
X283785Y-144401D01*
X283296Y-144401D01*
X283677Y-144401D02*
X284058Y-145000D01*
X284368Y-144238D02*
X284313Y-144293D01*
X284368Y-144347D01*
X284422Y-144293D01*
X284368Y-144238D01*
X284368Y-144891D02*
X284313Y-144946D01*
X284368Y-145000D01*
X284422Y-144946D01*
X284368Y-144891D01*
X273000Y-156206D02*
X273490Y-156206D01*
X273653Y-156151D01*
X273707Y-156097D01*
X273762Y-155988D01*
X273762Y-155825D01*
X273707Y-155716D01*
X273653Y-155662D01*
X273490Y-155607D01*
X273000Y-155607D01*
X273000Y-156750D01*
X274834Y-155879D02*
X274779Y-155770D01*
X274671Y-155662D01*
X274562Y-155607D01*
X274344Y-155607D01*
X274235Y-155662D01*
X274126Y-155770D01*
X274072Y-155879D01*
X274018Y-156043D01*
X274018Y-156315D01*
X274072Y-156478D01*
X274126Y-156587D01*
X274235Y-156696D01*
X274344Y-156750D01*
X274562Y-156750D01*
X274671Y-156696D01*
X274779Y-156587D01*
X274834Y-156478D01*
X275155Y-155607D02*
X275155Y-156750D01*
X275155Y-155607D02*
X275645Y-155607D01*
X275808Y-155662D01*
X275862Y-155716D01*
X275917Y-155825D01*
X275917Y-155934D01*
X275862Y-156043D01*
X275808Y-156097D01*
X275645Y-156151D01*
X275155Y-156151D02*
X275645Y-156151D01*
X275808Y-156206D01*
X275862Y-156260D01*
X275917Y-156369D01*
X275917Y-156532D01*
X275862Y-156641D01*
X275808Y-156696D01*
X275645Y-156750D01*
X275155Y-156750D01*
X277070Y-155607D02*
X277070Y-156750D01*
X277070Y-155607D02*
X277778Y-155607D01*
X277070Y-156151D02*
X277506Y-156151D01*
X277908Y-155607D02*
X277908Y-156750D01*
X278148Y-155607D02*
X278148Y-156750D01*
X278801Y-156750D01*
X279633Y-155607D02*
X278926Y-155607D01*
X278926Y-156750D01*
X279633Y-156750D01*
X278926Y-156151D02*
X279361Y-156151D01*
X280722Y-155607D02*
X280722Y-156750D01*
X280722Y-155607D02*
X281484Y-156750D01*
X281484Y-155607D02*
X281484Y-156750D01*
X282670Y-156750D02*
X282235Y-155607D01*
X281799Y-156750D01*
X281962Y-156369D02*
X282507Y-156369D01*
X282937Y-155607D02*
X282937Y-156750D01*
X282937Y-155607D02*
X283372Y-156750D01*
X283807Y-155607D02*
X283372Y-156750D01*
X283807Y-155607D02*
X283807Y-156750D01*
X284841Y-155607D02*
X284134Y-155607D01*
X284134Y-156750D01*
X284841Y-156750D01*
X284134Y-156151D02*
X284569Y-156151D01*
X285086Y-155988D02*
X285032Y-156043D01*
X285086Y-156097D01*
X285140Y-156043D01*
X285086Y-155988D01*
X285086Y-156641D02*
X285032Y-156696D01*
X285086Y-156750D01*
X285140Y-156696D01*
X285086Y-156641D01*
X301000Y-149857D02*
X301000Y-151000D01*
X301000Y-149857D02*
X301490Y-149857D01*
X301653Y-149912D01*
X301707Y-149966D01*
X301762Y-150075D01*
X301762Y-150184D01*
X301707Y-150293D01*
X301653Y-150347D01*
X301490Y-150401D01*
X301000Y-150401D02*
X301490Y-150401D01*
X301653Y-150456D01*
X301707Y-150510D01*
X301762Y-150619D01*
X301762Y-150782D01*
X301707Y-150891D01*
X301653Y-150946D01*
X301490Y-151000D01*
X301000Y-151000D01*
X302344Y-149857D02*
X302235Y-149912D01*
X302126Y-150020D01*
X302072Y-150129D01*
X302018Y-150293D01*
X302018Y-150565D01*
X302072Y-150728D01*
X302126Y-150837D01*
X302235Y-150946D01*
X302344Y-151000D01*
X302562Y-151000D01*
X302671Y-150946D01*
X302779Y-150837D01*
X302834Y-150728D01*
X302888Y-150565D01*
X302888Y-150293D01*
X302834Y-150129D01*
X302779Y-150020D01*
X302671Y-149912D01*
X302562Y-149857D01*
X302344Y-149857D01*
X304026Y-151000D02*
X303590Y-149857D01*
X303155Y-151000D01*
X303318Y-150619D02*
X303862Y-150619D01*
X304292Y-149857D02*
X304292Y-151000D01*
X304292Y-149857D02*
X304782Y-149857D01*
X304945Y-149912D01*
X305000Y-149966D01*
X305054Y-150075D01*
X305054Y-150184D01*
X305000Y-150293D01*
X304945Y-150347D01*
X304782Y-150401D01*
X304292Y-150401D01*
X304673Y-150401D02*
X305054Y-151000D01*
X305310Y-149857D02*
X305310Y-151000D01*
X305310Y-149857D02*
X305691Y-149857D01*
X305854Y-149912D01*
X305963Y-150020D01*
X306017Y-150129D01*
X306072Y-150293D01*
X306072Y-150565D01*
X306017Y-150728D01*
X305963Y-150837D01*
X305854Y-150946D01*
X305691Y-151000D01*
X305310Y-151000D01*
X307225Y-149857D02*
X307225Y-151000D01*
X307225Y-149857D02*
X307987Y-151000D01*
X307987Y-149857D02*
X307987Y-151000D01*
X308303Y-149857D02*
X308303Y-150673D01*
X308357Y-150837D01*
X308466Y-150946D01*
X308629Y-151000D01*
X308738Y-151000D01*
X308901Y-150946D01*
X309010Y-150837D01*
X309065Y-150673D01*
X309065Y-149857D01*
X309380Y-149857D02*
X309380Y-151000D01*
X309380Y-149857D02*
X309816Y-151000D01*
X310251Y-149857D02*
X309816Y-151000D01*
X310251Y-149857D02*
X310251Y-151000D01*
X310577Y-149857D02*
X310577Y-151000D01*
X310577Y-149857D02*
X311067Y-149857D01*
X311230Y-149912D01*
X311285Y-149966D01*
X311339Y-150075D01*
X311339Y-150184D01*
X311285Y-150293D01*
X311230Y-150347D01*
X311067Y-150401D01*
X310577Y-150401D02*
X311067Y-150401D01*
X311230Y-150456D01*
X311285Y-150510D01*
X311339Y-150619D01*
X311339Y-150782D01*
X311285Y-150891D01*
X311230Y-150946D01*
X311067Y-151000D01*
X310577Y-151000D01*
X312302Y-149857D02*
X311595Y-149857D01*
X311595Y-151000D01*
X312302Y-151000D01*
X311595Y-150401D02*
X312030Y-150401D01*
X312493Y-149857D02*
X312493Y-151000D01*
X312493Y-149857D02*
X312983Y-149857D01*
X313146Y-149912D01*
X313200Y-149966D01*
X313255Y-150075D01*
X313255Y-150184D01*
X313200Y-150293D01*
X313146Y-150347D01*
X312983Y-150401D01*
X312493Y-150401D01*
X312874Y-150401D02*
X313255Y-151000D01*
X313565Y-150238D02*
X313510Y-150293D01*
X313565Y-150347D01*
X313619Y-150293D01*
X313565Y-150238D01*
X313565Y-150891D02*
X313510Y-150946D01*
X313565Y-151000D01*
X313619Y-150946D01*
X313565Y-150891D01*
X339700Y-149857D02*
X339700Y-151000D01*
X339700Y-149857D02*
X340081Y-149857D01*
X340244Y-149912D01*
X340353Y-150020D01*
X340407Y-150129D01*
X340462Y-150293D01*
X340462Y-150565D01*
X340407Y-150728D01*
X340353Y-150837D01*
X340244Y-150946D01*
X340081Y-151000D01*
X339700Y-151000D01*
X341588Y-151000D02*
X341153Y-149857D01*
X340718Y-151000D01*
X340881Y-150619D02*
X341425Y-150619D01*
X342236Y-149857D02*
X342236Y-151000D01*
X341855Y-149857D02*
X342617Y-149857D01*
X343460Y-149857D02*
X342753Y-149857D01*
X342753Y-151000D01*
X343460Y-151000D01*
X342753Y-150401D02*
X343188Y-150401D01*
X343705Y-150238D02*
X343651Y-150293D01*
X343705Y-150347D01*
X343760Y-150293D01*
X343705Y-150238D01*
X343705Y-150891D02*
X343651Y-150946D01*
X343705Y-151000D01*
X343760Y-150946D01*
X343705Y-150891D01*
X301000Y-155357D02*
X301000Y-156500D01*
X301653Y-156500D01*
X302649Y-156500D02*
X302214Y-155357D01*
X301778Y-156500D01*
X301941Y-156119D02*
X302486Y-156119D01*
X302915Y-155357D02*
X303351Y-155901D01*
X303351Y-156500D01*
X303786Y-155357D02*
X303351Y-155901D01*
X304641Y-155357D02*
X303933Y-155357D01*
X303933Y-156500D01*
X304641Y-156500D01*
X303933Y-155901D02*
X304368Y-155901D01*
X304831Y-155357D02*
X304831Y-156500D01*
X304831Y-155357D02*
X305321Y-155357D01*
X305484Y-155412D01*
X305538Y-155466D01*
X305593Y-155575D01*
X305593Y-155684D01*
X305538Y-155793D01*
X305484Y-155847D01*
X305321Y-155901D01*
X304831Y-155901D01*
X305212Y-155901D02*
X305593Y-156500D01*
X306746Y-155357D02*
X306746Y-156500D01*
X306746Y-155357D02*
X307508Y-156500D01*
X307508Y-155357D02*
X307508Y-156500D01*
X308695Y-156500D02*
X308259Y-155357D01*
X307824Y-156500D01*
X307987Y-156119D02*
X308531Y-156119D01*
X308961Y-155357D02*
X308961Y-156500D01*
X308961Y-155357D02*
X309397Y-156500D01*
X309832Y-155357D02*
X309397Y-156500D01*
X309832Y-155357D02*
X309832Y-156500D01*
X310866Y-155357D02*
X310158Y-155357D01*
X310158Y-156500D01*
X310866Y-156500D01*
X310158Y-155901D02*
X310594Y-155901D01*
X311111Y-155738D02*
X311056Y-155793D01*
X311111Y-155847D01*
X311165Y-155793D01*
X311111Y-155738D01*
X311111Y-156391D02*
X311056Y-156446D01*
X311111Y-156500D01*
X311165Y-156446D01*
X311111Y-156391D01*
X331750Y-155607D02*
X331750Y-156750D01*
X331750Y-155607D02*
X332240Y-155607D01*
X332403Y-155662D01*
X332457Y-155716D01*
X332512Y-155825D01*
X332512Y-155934D01*
X332457Y-156043D01*
X332403Y-156097D01*
X332240Y-156151D01*
X331750Y-156151D01*
X332131Y-156151D02*
X332512Y-156750D01*
X333475Y-155607D02*
X332768Y-155607D01*
X332768Y-156750D01*
X333475Y-156750D01*
X332768Y-156151D02*
X333203Y-156151D01*
X333665Y-155607D02*
X334101Y-156750D01*
X334536Y-155607D02*
X334101Y-156750D01*
X334737Y-155988D02*
X334683Y-156043D01*
X334737Y-156097D01*
X334792Y-156043D01*
X334737Y-155988D01*
X334737Y-156641D02*
X334683Y-156696D01*
X334737Y-156750D01*
X334792Y-156696D01*
X334737Y-156641D01*
D18*
X274666Y-138358D02*
X274428Y-138120D01*
X274071Y-138001D01*
X273595Y-138001D01*
X273238Y-138120D01*
X273000Y-138358D01*
X273000Y-138596D01*
X273119Y-138834D01*
X273238Y-138953D01*
X273476Y-139072D01*
X274190Y-139310D01*
X274428Y-139429D01*
X274547Y-139548D01*
X274666Y-139786D01*
X274666Y-140143D01*
X274428Y-140381D01*
X274071Y-140500D01*
X273595Y-140500D01*
X273238Y-140381D01*
X273000Y-140143D01*
X275226Y-138001D02*
X275821Y-140500D01*
X276416Y-138001D02*
X275821Y-140500D01*
X276416Y-138001D02*
X277011Y-140500D01*
X277606Y-138001D02*
X277011Y-140500D01*
X278106Y-138001D02*
X278106Y-140500D01*
X282379Y-138596D02*
X282260Y-138358D01*
X282022Y-138120D01*
X281784Y-138001D01*
X281308Y-138001D01*
X281070Y-138120D01*
X280832Y-138358D01*
X280713Y-138596D01*
X280594Y-138953D01*
X280594Y-139548D01*
X280713Y-139905D01*
X280832Y-140143D01*
X281070Y-140381D01*
X281308Y-140500D01*
X281784Y-140500D01*
X282022Y-140381D01*
X282260Y-140143D01*
X282379Y-139905D01*
X283676Y-138834D02*
X283438Y-138953D01*
X283200Y-139191D01*
X283081Y-139548D01*
X283081Y-139786D01*
X283200Y-140143D01*
X283438Y-140381D01*
X283676Y-140500D01*
X284033Y-140500D01*
X284271Y-140381D01*
X284509Y-140143D01*
X284628Y-139786D01*
X284628Y-139548D01*
X284509Y-139191D01*
X284271Y-138953D01*
X284033Y-138834D01*
X283676Y-138834D01*
X285176Y-138834D02*
X285176Y-140500D01*
X285176Y-139310D02*
X285533Y-138953D01*
X285771Y-138834D01*
X286128Y-138834D01*
X286366Y-138953D01*
X286485Y-139310D01*
X286485Y-140500D01*
X287140Y-138834D02*
X287140Y-140500D01*
X287140Y-139310D02*
X287497Y-138953D01*
X287735Y-138834D01*
X288092Y-138834D01*
X288330Y-138953D01*
X288449Y-139310D01*
X288449Y-140500D01*
X289104Y-139548D02*
X290532Y-139548D01*
X290532Y-139310D01*
X290413Y-139072D01*
X290294Y-138953D01*
X290056Y-138834D01*
X289699Y-138834D01*
X289461Y-138953D01*
X289223Y-139191D01*
X289104Y-139548D01*
X289104Y-139786D01*
X289223Y-140143D01*
X289461Y-140381D01*
X289699Y-140500D01*
X290056Y-140500D01*
X290294Y-140381D01*
X290532Y-140143D01*
X292496Y-139191D02*
X292258Y-138953D01*
X292020Y-138834D01*
X291663Y-138834D01*
X291425Y-138953D01*
X291187Y-139191D01*
X291068Y-139548D01*
X291068Y-139786D01*
X291187Y-140143D01*
X291425Y-140381D01*
X291663Y-140500D01*
X292020Y-140500D01*
X292258Y-140381D01*
X292496Y-140143D01*
X293388Y-138001D02*
X293388Y-140024D01*
X293508Y-140381D01*
X293746Y-140500D01*
X293984Y-140500D01*
X293031Y-138834D02*
X293865Y-138834D01*
X294936Y-138834D02*
X294698Y-138953D01*
X294460Y-139191D01*
X294341Y-139548D01*
X294341Y-139786D01*
X294460Y-140143D01*
X294698Y-140381D01*
X294936Y-140500D01*
X295293Y-140500D01*
X295531Y-140381D01*
X295769Y-140143D01*
X295888Y-139786D01*
X295888Y-139548D01*
X295769Y-139191D01*
X295531Y-138953D01*
X295293Y-138834D01*
X294936Y-138834D01*
X296435Y-138834D02*
X296435Y-140500D01*
X296435Y-139548D02*
X296554Y-139191D01*
X296793Y-138953D01*
X297031Y-138834D01*
X297388Y-138834D01*
X299578Y-138001D02*
X299578Y-140500D01*
X299578Y-138001D02*
X300411Y-138001D01*
X300768Y-138120D01*
X301006Y-138358D01*
X301125Y-138596D01*
X301244Y-138953D01*
X301244Y-139548D01*
X301125Y-139905D01*
X301006Y-140143D01*
X300768Y-140381D01*
X300411Y-140500D01*
X299578Y-140500D01*
X301803Y-139548D02*
X303232Y-139548D01*
X303232Y-139310D01*
X303113Y-139072D01*
X302994Y-138953D01*
X302756Y-138834D01*
X302398Y-138834D01*
X302160Y-138953D01*
X301922Y-139191D01*
X301803Y-139548D01*
X301803Y-139786D01*
X301922Y-140143D01*
X302160Y-140381D01*
X302398Y-140500D01*
X302756Y-140500D01*
X302994Y-140381D01*
X303232Y-140143D01*
X303767Y-138834D02*
X303767Y-140500D01*
X303767Y-139310D02*
X304124Y-138953D01*
X304362Y-138834D01*
X304719Y-138834D01*
X304957Y-138953D01*
X305076Y-139310D01*
X305076Y-140500D01*
X305076Y-139310D02*
X305434Y-138953D01*
X305672Y-138834D01*
X306029Y-138834D01*
X306267Y-138953D01*
X306386Y-139310D01*
X306386Y-140500D01*
X307766Y-138834D02*
X307528Y-138953D01*
X307290Y-139191D01*
X307171Y-139548D01*
X307171Y-139786D01*
X307290Y-140143D01*
X307528Y-140381D01*
X307766Y-140500D01*
X308123Y-140500D01*
X308361Y-140381D01*
X308600Y-140143D01*
X308719Y-139786D01*
X308719Y-139548D01*
X308600Y-139191D01*
X308361Y-138953D01*
X308123Y-138834D01*
X307766Y-138834D01*
D19*
X307185Y-152476D02*
X307016Y-152307D01*
X306762Y-152222D01*
X306423Y-152222D01*
X306169Y-152307D01*
X306000Y-152476D01*
X306000Y-152646D01*
X306085Y-152815D01*
X306169Y-152900D01*
X306339Y-152984D01*
X306846Y-153154D01*
X307016Y-153238D01*
X307100Y-153323D01*
X307185Y-153492D01*
X307185Y-153746D01*
X307016Y-153915D01*
X306762Y-154000D01*
X306423Y-154000D01*
X306169Y-153915D01*
X306000Y-153746D01*
X307583Y-152222D02*
X308006Y-154000D01*
X308429Y-152222D02*
X308006Y-154000D01*
X308429Y-152222D02*
X308853Y-154000D01*
X309276Y-152222D02*
X308853Y-154000D01*
X309631Y-152222D02*
X309631Y-154000D01*
X310004Y-154593D02*
X311358Y-154593D01*
X311587Y-152222D02*
X311587Y-154000D01*
X311587Y-152222D02*
X312179Y-152222D01*
X312433Y-152307D01*
X312603Y-152476D01*
X312687Y-152646D01*
X312772Y-152900D01*
X312772Y-153323D01*
X312687Y-153577D01*
X312603Y-153746D01*
X312433Y-153915D01*
X312179Y-154000D01*
X311587Y-154000D01*
X314270Y-152222D02*
X313170Y-152222D01*
X313170Y-154000D01*
X314270Y-154000D01*
X313170Y-153069D02*
X313847Y-153069D01*
X314566Y-152222D02*
X314566Y-154000D01*
X314566Y-152222D02*
X315244Y-154000D01*
X315921Y-152222D02*
X315244Y-154000D01*
X315921Y-152222D02*
X315921Y-154000D01*
X316937Y-152222D02*
X316767Y-152307D01*
X316598Y-152476D01*
X316513Y-152646D01*
X316429Y-152900D01*
X316429Y-153323D01*
X316513Y-153577D01*
X316598Y-153746D01*
X316767Y-153915D01*
X316937Y-154000D01*
X317275Y-154000D01*
X317444Y-153915D01*
X317614Y-153746D01*
X317698Y-153577D01*
X317783Y-153323D01*
X317783Y-152900D01*
X317698Y-152646D01*
X317614Y-152476D01*
X317444Y-152307D01*
X317275Y-152222D01*
X316937Y-152222D01*
X301508Y-152222D02*
X301254Y-152307D01*
X301085Y-152561D01*
X301000Y-152984D01*
X301000Y-153238D01*
X301085Y-153661D01*
X301254Y-153915D01*
X301508Y-154000D01*
X301677Y-154000D01*
X301931Y-153915D01*
X302100Y-153661D01*
X302185Y-153238D01*
X302185Y-152984D01*
X302100Y-152561D01*
X301931Y-152307D01*
X301677Y-152222D01*
X301508Y-152222D01*
X303429Y-152222D02*
X302583Y-153407D01*
X303853Y-153407D01*
X303429Y-152222D02*
X303429Y-154000D01*
X304166Y-153238D02*
X305690Y-153238D01*
D20*
X343000Y-134965D02*
X342857Y-134822D01*
X342643Y-134750D01*
X342357Y-134750D01*
X342143Y-134822D01*
X342000Y-134965D01*
X342000Y-135107D01*
X342071Y-135250D01*
X342143Y-135322D01*
X342286Y-135393D01*
X342714Y-135536D01*
X342857Y-135607D01*
X342928Y-135679D01*
X343000Y-135821D01*
X343000Y-136036D01*
X342857Y-136179D01*
X342643Y-136250D01*
X342357Y-136250D01*
X342143Y-136179D01*
X342000Y-136036D01*
X343335Y-134750D02*
X343693Y-136250D01*
X344050Y-134750D02*
X343693Y-136250D01*
X344050Y-134750D02*
X344407Y-136250D01*
X344764Y-134750D02*
X344407Y-136250D01*
X345064Y-134750D02*
X345064Y-136250D01*
X345378Y-136750D02*
X346520Y-136750D01*
X346713Y-134750D02*
X346713Y-136250D01*
X346713Y-134750D02*
X347213Y-134750D01*
X347427Y-134822D01*
X347570Y-134965D01*
X347642Y-135107D01*
X347713Y-135322D01*
X347713Y-135679D01*
X347642Y-135893D01*
X347570Y-136036D01*
X347427Y-136179D01*
X347213Y-136250D01*
X346713Y-136250D01*
X348977Y-134750D02*
X348049Y-134750D01*
X348049Y-136250D01*
X348977Y-136250D01*
X348049Y-135464D02*
X348620Y-135464D01*
X349227Y-134750D02*
X349227Y-136250D01*
X349227Y-134750D02*
X349798Y-136250D01*
X350370Y-134750D02*
X349798Y-136250D01*
X350370Y-134750D02*
X350370Y-136250D01*
X351227Y-134750D02*
X351084Y-134822D01*
X350941Y-134965D01*
X350870Y-135107D01*
X350798Y-135322D01*
X350798Y-135679D01*
X350870Y-135893D01*
X350941Y-136036D01*
X351084Y-136179D01*
X351227Y-136250D01*
X351512Y-136250D01*
X351655Y-136179D01*
X351798Y-136036D01*
X351869Y-135893D01*
X351941Y-135679D01*
X351941Y-135322D01*
X351869Y-135107D01*
X351798Y-134965D01*
X351655Y-134822D01*
X351512Y-134750D01*
X351227Y-134750D01*
D34*
X24480Y9190D02*
X25380Y9190D01*
X24930Y8740D02*
X24930Y9640D01*
X24480Y11730D02*
X25380Y11730D01*
X24930Y11280D02*
X24930Y12180D01*
X24480Y21890D02*
X25380Y21890D01*
X24930Y21440D02*
X24930Y22340D01*
X24480Y19350D02*
X25380Y19350D01*
X24930Y18900D02*
X24930Y19800D01*
X24480Y16810D02*
X25380Y16810D01*
X24930Y16360D02*
X24930Y17260D01*
X24480Y14270D02*
X25380Y14270D01*
X24930Y13820D02*
X24930Y14720D01*
X24480Y6650D02*
X25380Y6650D01*
X24930Y6200D02*
X24930Y7100D01*
X24480Y4110D02*
X25380Y4110D01*
X24930Y3660D02*
X24930Y4560D01*
X1620Y9190D02*
X2520Y9190D01*
X2070Y8740D02*
X2070Y9640D01*
X1620Y11730D02*
X2520Y11730D01*
X2070Y11280D02*
X2070Y12180D01*
X1620Y21890D02*
X2520Y21890D01*
X2070Y21440D02*
X2070Y22340D01*
X1620Y19350D02*
X2520Y19350D01*
X2070Y18900D02*
X2070Y19800D01*
X1620Y16810D02*
X2520Y16810D01*
X2070Y16360D02*
X2070Y17260D01*
X1620Y14270D02*
X2520Y14270D01*
X2070Y13820D02*
X2070Y14720D01*
X1620Y6650D02*
X2520Y6650D01*
X2070Y6200D02*
X2070Y7100D01*
X1620Y4110D02*
X2520Y4110D01*
X2070Y3660D02*
X2070Y4560D01*
X11780Y37864D02*
X12680Y37864D01*
X12230Y37415D02*
X12230Y38314D01*
X14320Y37864D02*
X15220Y37864D01*
X14770Y37415D02*
X14770Y38314D01*
M02*
